<?xml version="1.0" encoding="UTF-8"?>
<!DOCTYPE svg PUBLIC "-//W3C//DTD SVG 1.1//EN" "http://www.w3.org/Graphics/SVG/1.1/DTD/svg11.dtd">
<svg version="1.1" xmlns="http://www.w3.org/2000/svg" xmlns:xlink="http://www.w3.org/1999/xlink" x="0" y="0" width="134.725" height="134.725" viewBox="0, 0, 384.929, 384.929">
  <g id="Background">
    <rect x="0" y="0" width="384.929" height="384.929" fill="#FFFFFF"/>
  </g>
  <g id="Layer_1">
    <g>
      <path d="M350.246,191.25 L350.246,124.312 C350.246,119.053 345.943,114.75 340.684,114.75 L321.559,114.75 C316.299,114.75 307.694,114.75 302.434,114.75 C297.174,114.75 288.569,114.75 283.309,114.75 L248.08,114.75 C239.397,100.215 225.532,89.151 208.979,84.188 C213.368,81.74 216.371,77.102 216.371,71.718 C216.371,63.8 209.945,57.374 202.027,57.374 L197.246,57.374 L197.246,38.25 L240.277,38.25 C248.195,38.25 254.621,31.824 254.621,23.906 C254.621,15.988 248.195,9.562 240.277,9.562 L197.246,9.562 C197.246,4.284 194.061,-0 187.684,-0 C181.307,-0 178.122,4.284 178.122,9.562 L135.091,9.562 C127.173,9.562 120.747,15.988 120.747,23.906 C120.747,31.824 127.173,38.25 135.091,38.25 L178.122,38.25 L178.122,57.375 L173.341,57.375 C165.423,57.375 158.997,63.801 158.997,71.719 C158.997,77.591 162.535,82.62 167.584,84.839 C155.717,88.798 145.313,95.903 137.329,105.188 L63.371,105.188 L63.371,76.5 C63.371,65.934 54.812,57.375 44.246,57.375 C33.68,57.375 25.121,65.934 25.121,76.5 L25.121,219.938 C25.121,230.504 33.68,239.063 44.246,239.063 C54.812,239.063 63.371,230.504 63.371,219.938 L63.371,181.688 L128.635,181.688 C140.11,203.471 162.945,218.341 189.28,218.341 C222.768,218.341 250.595,194.31 256.581,162.563 L283.309,162.563 C288.569,162.563 292.871,166.866 292.871,172.125 L292.871,191.25 C287.611,191.25 283.309,195.553 283.309,200.812 L283.309,219.937 C283.309,225.197 287.612,229.499 292.871,229.499 L350.246,229.499 C355.506,229.499 359.808,225.196 359.808,219.937 L359.808,200.812 C359.808,195.553 355.505,191.25 350.246,191.25 z" fill="#000000"/>
      <path d="M279.722,344.881 C279.722,366.999 297.652,384.929 319.77,384.929 C341.888,384.929 359.808,366.999 359.808,344.881 C359.808,322.763 319.76,265.331 319.76,265.331 C319.76,265.331 279.722,322.763 279.722,344.881 z" fill="#000000"/>
    </g>
  </g>
</svg>
