<?xml version="1.0" encoding="UTF-8"?>
    <!DOCTYPE svg PUBLIC "-//W3C//DTD SVG 1.1//EN" "http://www.w3.org/Graphics/SVG/1.1/DTD/svg11.dtd">
    <svg version="1.1" xmlns="http://www.w3.org/2000/svg" xmlns:xlink="http://www.w3.org/1999/xlink" x="0" y="0" width="1182.5" height="577.06" viewBox="0, 0, 2500, 1220">
        <g id="Background">
            <rect x="0" y="0" width="2500" height="1220" fill="#FFFFFF" />
        </g>
        <g id="Layer_2">
            <path d="M1719.452,484.742 C1640.83,417.065 1635.493,327.612 1674.536,229.286 C1711.655,126.685 1841.922,96.935 1946.624,87.6 L1906.337,213.353 C1847.971,211.378 1745.205,221.627 1755.17,315.773 C1756.17,372.416 1803.299,405.628 1827.772,443.276 C1855.317,485.829 1878.115,556.051 1856.966,646.063 C1838.041,713.847 1804.731,756.145 1758.567,784.672 C1717.672,815.522 1614.758,836.332 1536.407,829.578 L1580.85,692.338 C1626.646,695.621 1658.276,689.912 1693.303,674.782 C1747.293,651.461 1765.225,530.198 1719.453,484.742" fill="#2D2B2E" />
            <path d="M756.125,625.385 L756.125,628.029" fill-opacity="0" stroke="#000000" stroke-width="4.5" />
            <path d="M1344.005,247.815 L1441.254,222.521 L1440.908,639.782 L1555.977,193.678 L1644.509,173.465 L1470.125,844.74 L1365,853.248 L1370.84,444.767 L1274.818,864.484 L1186.678,876.471 L1344.005,247.815 z" fill="#2D2B2E" />
            <path d="M1665.007,467.533 C1586.373,399.32 1581.019,309.182 1620.046,210.114 C1657.146,106.738 1787.409,76.793 1892.11,67.412 L1851.845,194.116 C1793.478,192.112 1690.714,202.414 1700.695,297.282 C1701.705,354.358 1748.841,387.836 1773.32,425.777 C1800.873,468.662 1823.683,539.426 1802.55,630.121 C1783.637,698.419 1750.335,741.032 1704.175,769.765 C1663.285,800.841 1560.374,821.784 1482.022,814.96 L1526.441,676.682 C1572.238,680.001 1603.867,674.257 1638.892,659.019 C1692.877,635.533 1710.789,513.348 1665.007,467.533" fill="#E21E2D" />
            <path d="M1182.527,392.763 L1166.33,394.477 L1064.777,677.629 L1115.134,660.884 z M1137.851,881.353 L1062.851,890.295 L1086.278,795.981 L1021.374,810.58 L986.217,897.88 L913.654,909.118 L1121.424,309.006 L1287.54,250.971 z" fill="#2D2B2E" />
            <path d="M1148.419,363.673 L1132.221,365.387 L1030.668,648.539 L1081.025,631.795 z M1105.77,847.402 L1026.18,864.811 L1052.17,766.892 L987.266,781.49 L957.636,874.953 L874.493,890.295 L1087.315,279.916 L1250.622,230.862 z" fill="#E21E2D" />
            <path d="M478.426,563.544 L321.74,1023.88 C321.74,1023.88 364.967,1027.053 412.24,900.065 L521.644,593.704 C521.644,593.704 547.307,533.383 478.426,563.544 M584.113,381.877 C680.458,372.183 640.543,496.723 640.543,496.723 L502.906,910.774 C410.696,1216.478 172.61,1209.989 172.61,1209.989 L380.425,592.149 L369.413,472.454 z" fill="#2D2B2E" />
            <path d="M437.618,525.857 L280.937,986.199 C280.937,986.199 324.164,989.372 371.436,862.384 L480.84,556.018 C480.84,556.018 506.504,495.697 437.618,525.857 M543.309,344.196 C639.654,334.497 599.739,459.037 599.739,459.037 L462.107,873.093 C369.893,1178.787 131.807,1172.308 131.807,1172.308 L339.626,554.463 L328.614,434.768 z" fill="#E21E2D" />
            <path d="M438.118,526.357 L281.437,986.699 C281.437,986.699 324.664,989.872 371.936,862.884 L481.34,556.518 C481.34,556.518 507.004,496.197 438.118,526.357 z M543.809,344.696 C640.154,334.997 600.239,459.537 600.239,459.537 L462.607,873.593 C370.393,1179.287 132.307,1172.808 132.307,1172.808 L340.126,554.963 L329.114,435.268 L543.809,344.696 z" fill-opacity="0" stroke="#2D2B2E" stroke-width="9" />
            <path d="M833.276,419.564 L804.767,516.492 L748.84,537.861 L713.356,629.577 L780.531,618.79 L730.384,715.533 L680.981,730.931 L642.092,871.897 L706.792,866.863 L669.619,950.267 L532.857,978.973 L663.956,545.44 L663.986,479.547 z" fill="#2D2B2E" />
            <path d="M789.468,386.147 L760.959,483.075 L705.032,504.444 L669.548,596.16 L736.722,585.373 L686.576,682.116 L637.173,697.514 L598.284,838.485 L662.984,833.446 L625.81,916.845 L489.054,945.56 L620.148,512.023 L620.178,446.135 z" fill="#E21E2D" />
            <path d="M791.466,381.839 C791.466,381.839 762.158,486.575 762.158,486.575 L706.232,507.944 L670.748,599.66 L737.922,588.873 L687.776,685.616 L638.373,701.013 L599.483,841.985 L664.184,836.946 L627.01,920.345 L490.254,949.06 L621.348,515.523 L621.378,449.635 C621.378,449.635 791.466,381.839 791.466,381.839 z" fill-opacity="0" stroke="#2D2B2E" stroke-width="9" />
            <path d="M741.351,934.98 L852.162,917.051 L1061.304,326.509 L980.884,357.959 L837.445,748.322 L913.539,378.458 L848.243,400.025 L741.351,934.98 z" fill="#2D2B2E" />
            <path d="M711.076,905.439 L822.292,886.473 L1031.028,296.969 L950.029,326.509 L807.17,718.782 L883.264,348.918 L817.968,370.484 L711.076,905.439 z" fill="#E21E2D" />
            <path d="M711.576,905.939 L820.692,890.811 L1031.528,300.113 L950.529,327.009 L807.67,719.282 L883.764,349.418 L818.468,370.984 L711.576,905.939 z" fill-opacity="0" stroke="#2D2B2E" stroke-width="9" />
            <path d="M1148.117,364.189 L1131.92,365.903 L1030.367,649.055 L1080.724,632.31 z M1103.823,853.52 L1027.595,860.833 L1051.868,767.407 L986.964,782.006 L957.334,875.469 L874.993,886.429 L1085.936,283.586 L1251.122,235.328 z" fill-opacity="0" stroke="#2D2B2E" stroke-width="9" />
            <path d="M1308.201,216.083 L1405.45,190.789 L1405.104,608.05 L1520.173,161.947 L1608.705,141.733 L1438.735,810.97 L1330.617,823.768 L1335.036,413.036 L1236.499,829.253 L1150.874,844.74 L1308.201,216.083 z" fill="#E21E2D" />
            <path d="M1308.679,216.585 L1405.95,191.289 L1405.583,608.552 L1520.695,162.445 L1609.205,142.234 L1438.457,816.955 L1331.117,824.268 L1335.514,413.538 L1236.999,834.323 L1151.374,845.24 L1308.679,216.585 z" fill-opacity="0" stroke="#2D2B2E" stroke-width="9" />
            <path d="M2019.231,85.899 L1879.656,818.83 L2018.383,807.493 L2068.252,531.29 L2202.111,531.29 L2186.97,807.493 L2306.504,807.493 L2397.166,42.228 L2263.661,54.192 L2221.758,405.117 L2089.71,411.137 L2122.747,76.968 L2019.231,85.899 z" fill="#2D2B2E" />
            <path d="M1976.388,53.67 L1836.813,786.602 L1975.539,775.265 L2025.409,499.062 L2159.268,499.062 L2144.127,775.265 L2263.661,775.265 L2354.323,10 L2220.817,21.964 L2178.915,372.888 L2046.866,378.908 L2079.903,44.74 L1976.388,53.67 z" fill="#E21E2D" />
            <path d="M1977.502,54.17 L1837.927,787.102 L1976.653,775.765 L2026.523,499.562 L2160.382,499.562 L2145.241,775.765 L2264.775,775.765 L2355.437,10.5 L2221.931,22.463 L2180.029,373.388 L2047.98,379.408 L2081.017,45.24 L1977.502,54.17 z" fill-opacity="0" stroke="#2D2B2E" stroke-width="9.45" />
            <path d="M1669.938,465.051 C1591.316,397.374 1585.978,307.921 1625.022,209.595 C1662.14,106.994 1792.408,77.244 1897.11,67.909 L1856.822,193.662 C1798.457,191.687 1695.691,201.936 1705.656,296.082 C1706.655,352.726 1753.785,385.937 1778.258,423.585 C1805.803,466.138 1828.601,536.36 1807.451,626.372 C1788.526,694.156 1755.217,736.454 1709.052,764.981 C1668.157,795.832 1565.243,816.641 1486.893,809.887 L1531.335,672.647 C1577.132,675.93 1608.762,670.221 1643.789,655.091 C1697.778,631.77 1715.711,510.507 1669.938,465.051" fill-opacity="0" stroke="#2D2B2E" stroke-width="9.45" />
        </g>
    </svg>
