<?xml version="1.0" encoding="UTF-8"?>
<!DOCTYPE svg PUBLIC "-//W3C//DTD SVG 1.1//EN" "http://www.w3.org/Graphics/SVG/1.1/DTD/svg11.dtd">
<svg version="1.1" xmlns="http://www.w3.org/2000/svg" xmlns:xlink="http://www.w3.org/1999/xlink" x="0" y="0" width="1182.5" height="577.06" viewBox="0, 0, 1182.5, 577.06">
  <g id="Background">
    <path d="M-0,-0 L1182.5,-0 L1182.5,577.06 L-0,577.06 z" fill="#FFFFFF"/>
  </g>
  <g id="Layer_2">
    <path d="M813.301,229.283 C776.113,197.272 773.588,154.96 792.055,108.452 C809.613,59.922 871.229,45.85 920.753,41.435 L901.697,100.916 C874.09,99.982 825.482,104.83 830.195,149.361 C830.668,176.153 852.96,191.862 864.536,209.67 C877.565,229.797 888.348,263.012 878.345,305.588 C869.393,337.65 853.638,357.657 831.802,371.15 C812.459,385.742 763.781,395.585 726.72,392.39 L747.742,327.476 C769.404,329.029 784.365,326.328 800.932,319.172 C826.47,308.141 834.951,250.784 813.301,229.283" fill="#2D2B2E"/>
    <path d="M357.647,295.807 L357.647,297.058" fill-opacity="0" stroke="#000000" stroke-width="2.128"/>
    <path d="M635.714,117.216 L681.713,105.252 L681.549,302.617 L735.977,91.61 L777.853,82.049 L695.369,399.562 L645.645,403.586 L648.407,210.375 L602.989,408.901 L561.299,414.571 L635.714,117.216 z" fill="#2D2B2E"/>
    <path d="M790.548,220.143 C753.354,187.878 750.822,145.243 769.282,98.384 C786.83,49.487 848.444,35.323 897.968,30.886 L878.923,90.817 C851.315,89.869 802.708,94.742 807.429,139.614 C807.906,166.611 830.202,182.446 841.78,200.393 C854.813,220.677 865.602,254.148 855.606,297.047 C846.66,329.352 830.908,349.508 809.075,363.099 C789.734,377.798 741.057,387.704 703.996,384.476 L725.007,319.071 C746.669,320.64 761.629,317.924 778.196,310.716 C803.731,299.607 812.203,241.814 790.548,220.143" fill="#E21E2D"/>
    <path d="M559.335,185.777 L551.674,186.588 L503.639,320.518 L527.458,312.598 z M538.203,416.88 L502.728,421.11 L513.809,376.499 L483.11,383.404 L466.481,424.697 L432.158,430.013 L530.434,146.16 L609.006,118.709 z" fill="#2D2B2E"/>
    <path d="M543.202,172.017 L535.541,172.828 L487.506,306.759 L511.325,298.839 z M523.029,400.821 L485.383,409.056 L497.676,362.74 L466.977,369.645 L452.962,413.853 L413.635,421.11 L514.3,132.4 L591.544,109.198 z" fill="#E21E2D"/>
    <path d="M226.295,266.556 L152.183,484.295 C152.183,484.295 172.629,485.796 194.99,425.731 L246.738,280.822 C246.738,280.822 258.876,252.29 226.295,266.556 M276.285,180.628 C321.857,176.043 302.977,234.95 302.977,234.95 L237.875,430.796 C194.259,575.394 81.645,572.325 81.645,572.325 L179.941,280.086 L174.732,223.471 z" fill="#2D2B2E"/>
    <path d="M206.993,248.73 L132.883,466.472 C132.883,466.472 153.33,467.973 175.689,407.908 L227.437,262.996 C227.437,262.996 239.576,234.465 206.993,248.73 M256.985,162.805 C302.556,158.217 283.677,217.124 283.677,217.124 L218.577,412.973 C174.959,557.566 62.345,554.502 62.345,554.502 L160.643,262.261 L155.434,205.645 z" fill="#E21E2D"/>
    <path d="M207.23,248.967 L133.12,466.709 C133.12,466.709 153.566,468.209 175.926,408.144 L227.674,263.233 C227.674,263.233 239.813,234.701 207.23,248.967 z M257.222,163.041 C302.793,158.454 283.913,217.361 283.913,217.361 L218.813,413.21 C175.196,557.803 62.581,554.738 62.581,554.738 L160.88,262.497 L155.671,205.882 L257.222,163.041 z" fill-opacity="0" stroke="#2D2B2E" stroke-width="4.257"/>
    <path d="M394.14,198.454 L380.655,244.301 L354.201,254.408 L337.417,297.79 L369.191,292.688 L345.472,338.447 L322.104,345.73 L303.71,412.407 L334.313,410.026 L316.73,449.476 L252.041,463.054 L314.051,257.993 L314.065,226.826 z" fill="#2D2B2E"/>
    <path d="M373.418,182.648 L359.934,228.494 L333.48,238.602 L316.696,281.984 L348.469,276.881 L324.75,322.641 L301.383,329.924 L282.988,396.603 L313.591,394.22 L296.008,433.668 L231.323,447.25 L293.33,242.187 L293.344,211.022 z" fill="#E21E2D"/>
    <path d="M374.363,180.61 C374.363,180.61 360.501,230.15 360.501,230.15 L334.048,240.258 L317.264,283.639 L349.037,278.537 L325.318,324.296 L301.95,331.579 L283.555,398.259 L314.159,395.875 L296.576,435.323 L231.89,448.905 L293.898,243.842 L293.912,212.677 C293.912,212.677 374.363,180.61 374.363,180.61 z" fill-opacity="0" stroke="#2D2B2E" stroke-width="4.257"/>
    <path d="M350.659,442.246 L403.073,433.765 L501.997,154.439 L463.958,169.315 L396.111,353.956 L432.104,179.011 L401.219,189.212 L350.659,442.246 z" fill="#2D2B2E"/>
    <path d="M336.339,428.273 L388.944,419.302 L487.676,140.466 L449.364,154.439 L381.791,339.984 L417.784,165.038 L386.899,175.239 L336.339,428.273 z" fill="#E21E2D"/>
    <path d="M336.575,428.509 L388.187,421.354 L487.913,141.953 L449.6,154.675 L382.028,340.22 L418.02,165.275 L387.135,175.475 L336.575,428.509 z" fill-opacity="0" stroke="#2D2B2E" stroke-width="4.257"/>
    <path d="M543.059,172.261 L535.398,173.072 L487.364,307.003 L511.182,299.083 z M522.108,403.715 L486.052,407.174 L497.534,362.983 L466.834,369.889 L452.819,414.097 L413.872,419.281 L513.648,134.136 L591.781,111.31 z" fill-opacity="0" stroke="#2D2B2E" stroke-width="4.257"/>
    <path d="M618.779,102.207 L664.778,90.243 L664.614,287.608 L719.042,76.601 L760.917,67.04 L680.522,383.589 L629.382,389.642 L631.472,195.366 L584.864,392.237 L544.363,399.562 L618.779,102.207 z" fill="#E21E2D"/>
    <path d="M619.005,102.445 L665.014,90.48 L664.841,287.845 L719.289,76.836 L761.154,67.277 L680.39,386.42 L629.618,389.879 L631.698,195.603 L585.101,394.635 L544.6,399.799 L619.005,102.445 z" fill-opacity="0" stroke="#2D2B2E" stroke-width="4.257"/>
    <path d="M955.096,40.63 L889.077,387.307 L954.695,381.944 L978.283,251.3 L1041.599,251.3 L1034.437,381.944 L1090.976,381.944 L1133.859,19.974 L1070.712,25.633 L1050.891,191.62 L988.433,194.468 L1004.059,36.406 L955.096,40.63 z" fill="#2D2B2E"/>
    <path d="M934.832,25.386 L868.813,372.063 L934.43,366.7 L958.018,236.056 L1021.334,236.056 L1014.172,366.7 L1070.712,366.7 L1113.595,4.73 L1050.446,10.389 L1030.627,176.376 L968.168,179.223 L983.794,21.162 L934.832,25.386 z" fill="#E21E2D"/>
    <path d="M935.358,25.622 L869.339,372.299 L934.957,366.937 L958.545,236.293 L1021.861,236.293 L1014.699,366.937 L1071.239,366.937 L1114.122,4.966 L1050.973,10.625 L1031.154,176.613 L968.695,179.46 L984.321,21.399 L935.358,25.622 z" fill-opacity="0" stroke="#2D2B2E" stroke-width="4.47"/>
    <path d="M789.881,219.969 C752.692,187.958 750.168,145.647 768.635,99.138 C786.192,50.608 847.809,36.536 897.333,32.121 L878.277,91.602 C850.67,90.668 802.062,95.516 806.775,140.047 C807.248,166.839 829.54,182.548 841.116,200.356 C854.145,220.483 864.928,253.698 854.924,296.274 C845.973,328.336 830.218,348.343 808.382,361.836 C789.038,376.429 740.36,386.271 703.3,383.077 L724.321,318.162 C745.983,319.715 760.944,317.015 777.512,309.858 C803.049,298.827 811.531,241.47 789.881,219.969" fill-opacity="0" stroke="#2D2B2E" stroke-width="4.47"/>
  </g>
</svg>
