<?xml version="1.0" encoding="UTF-8"?>
<!DOCTYPE svg PUBLIC "-//W3C//DTD SVG 1.1//EN" "http://www.w3.org/Graphics/SVG/1.1/DTD/svg11.dtd">
<svg version="1.1" xmlns="http://www.w3.org/2000/svg" xmlns:xlink="http://www.w3.org/1999/xlink" x="0" y="0" width="1440" height="775" viewBox="0, 0, 1440, 775">
  <g id="Background">
    <rect x="0" y="0" width="1440" height="775" fill="#FFFFFF"/>
  </g>
  <defs>
    <linearGradient id="Gradient_1" gradientUnits="userSpaceOnUse" x1="720.5" y1="0.5" x2="720.5" y2="773.5">
      <stop offset="0" stop-color="#FFFFFF"/>
      <stop offset="0.607" stop-color="#C1FFFC"/>
    </linearGradient>
  </defs>
  <g id="Layer_1">
    <g>
      <path d="M0.5,0.5 L1440.5,0.5 L1440.5,773.5 L0.5,773.5 L0.5,0.5 z" fill="url(#Gradient_1)"/>
      <path d="M0.5,0.5 L1440.5,0.5 L1440.5,773.5 L0.5,773.5 L0.5,0.5 z" fill-opacity="0" stroke="#175524" stroke-width="4"/>
    </g>
    <g>
      <path d="M929.167,617.578 C705.559,538.145 103.871,533.489 0.5,633.73 L0.5,773.5 L1440.5,773.5 L1440.5,580.331 C1255.2,505.507 797.714,585.111 797.714,585.111" fill="#3ED047"/>
      <path d="M931.467,615.942 L928.831,615.015 L923.406,613.164 L917.833,611.337 L912.128,609.539 L906.295,607.769 L900.336,606.028 L894.254,604.317 L888.052,602.634 L881.73,600.98 L875.293,599.355 L868.743,597.759 L862.081,596.191 L855.312,594.653 L848.436,593.144 L841.456,591.665 L834.376,590.214 L827.197,588.793 L819.922,587.401 L812.553,586.038 L805.093,584.705 L797.544,583.401 L789.909,582.126 L782.19,580.881 L774.391,579.667 L766.511,578.481 L758.557,577.326 L750.527,576.2 L742.427,575.104 L734.258,574.038 L726.022,573.002 L717.722,571.997 L709.36,571.021 L700.94,570.076 L692.464,569.162 L683.932,568.278 L675.35,567.424 L666.719,566.601 L658.04,565.808 L644.95,564.678 L627.352,563.279 L609.604,562.004 L591.736,560.853 L573.765,559.828 L555.712,558.929 L537.597,558.156 L519.44,557.512 L501.262,556.995 L483.08,556.608 L464.916,556.35 L446.79,556.222 L428.722,556.225 L410.73,556.36 L392.836,556.628 L375.058,557.028 L357.417,557.562 L344.281,558.052 L335.573,558.42 L326.919,558.822 L318.314,559.258 L309.758,559.729 L301.255,560.233 L292.807,560.771 L284.418,561.344 L276.088,561.952 L267.821,562.593 L259.619,563.27 L251.486,563.981 L243.422,564.727 L235.43,565.508 L227.514,566.324 L219.676,567.175 L211.917,568.062 L204.242,568.984 L196.651,569.941 L189.148,570.934 L181.733,571.963 L174.412,573.027 L167.185,574.127 L160.056,575.264 L153.027,576.436 L146.1,577.645 L139.277,578.89 L132.562,580.172 L125.956,581.491 L119.462,582.846 L113.083,584.239 L106.82,585.668 L100.677,587.135 L94.656,588.64 L88.76,590.182 L82.991,591.761 L77.351,593.379 L71.843,595.035 L66.469,596.729 L61.232,598.462 L56.135,600.233 L51.18,602.043 L46.37,603.893 L41.707,605.781 L37.195,607.71 L32.835,609.678 L28.629,611.686 L24.583,613.733 L20.698,615.822 L16.976,617.951 L13.422,620.119 L10.036,622.33 L6.823,624.58 L3.785,626.872 L0.927,629.204 L-1.75,631.578 L-3.038,632.796 L-3.038,632.796 C-3.341,633.084 -3.5,633.405 -3.5,633.73 L-3.5,633.73 L-3.5,773.5 L-3.5,773.5 C-3.5,774.605 -1.709,775.5 0.5,775.5 C0.5,775.5 0.5,775.5 0.5,775.5 L0.5,775.5 L1440.5,775.5 L1440.5,775.5 C1442.709,775.5 1444.5,774.605 1444.5,773.5 C1444.5,773.5 1444.5,773.5 1444.5,773.5 L1444.5,773.5 L1444.5,580.331 L1444.5,580.331 C1444.5,579.722 1443.945,579.146 1442.992,578.767 L1442.992,578.767 L1440.809,577.898 L1436.304,576.175 L1431.682,574.502 L1426.966,572.886 L1422.157,571.325 L1417.259,569.819 L1412.273,568.368 L1407.202,566.971 L1402.048,565.626 L1396.813,564.334 L1391.499,563.094 L1386.11,561.904 L1380.645,560.765 L1375.108,559.674 L1369.502,558.633 L1363.829,557.64 L1358.089,556.693 L1352.284,555.793 L1346.42,554.939 L1340.495,554.13 L1334.514,553.365 L1328.476,552.644 L1322.386,551.965 L1316.244,551.329 L1310.054,550.734 L1303.816,550.18 L1297.534,549.665 L1291.208,549.19 L1284.842,548.754 L1278.437,548.356 L1268.773,547.828 L1255.766,547.25 L1242.628,546.811 L1229.39,546.505 L1216.066,546.327 L1202.672,546.272 L1189.227,546.334 L1175.746,546.507 L1162.245,546.786 L1148.742,547.167 L1135.251,547.642 L1121.791,548.208 L1108.377,548.858 L1095.026,549.587 L1081.755,550.39 L1068.58,551.261 L1055.518,552.195 L1042.585,553.186 L1029.797,554.23 L1017.173,555.321 L1004.727,556.453 L992.477,557.621 L980.439,558.82 L968.629,560.044 L957.066,561.288 L945.765,562.547 L934.743,563.815 L926.665,564.769 L921.376,565.405 L916.169,566.04 L911.041,566.674 L905.999,567.306 L901.04,567.935 L896.17,568.561 L891.389,569.183 L886.699,569.8 L882.104,570.411 L877.604,571.017 L873.201,571.616 L868.899,572.207 L864.698,572.791 L860.601,573.365 L856.611,573.93 L852.728,574.486 L848.957,575.03 L845.297,575.563 L841.751,576.084 L838.323,576.592 L835.013,577.087 L831.824,577.567 L828.758,578.033 L825.816,578.483 L823.002,578.918 L820.316,579.335 L817.762,579.735 L815.341,580.117 L813.054,580.48 L810.906,580.824 L808.897,581.147 L807.029,581.45 L805.306,581.732 L803.728,581.991 L802.297,582.227 L801.017,582.44 L799.889,582.629 L798.914,582.793 L798.096,582.931 L797.436,583.044 L796.937,583.129 L796.6,583.187 L796.427,583.217 L796.402,583.221 L796.402,583.221 C794.315,583.583 793.211,584.723 793.935,585.766 C794.659,586.81 796.938,587.362 799.025,587 C799.025,587 799.025,587 799.025,587 L799.042,586.997 L799.202,586.97 L799.527,586.914 L800.014,586.83 L800.66,586.72 L801.466,586.584 L802.425,586.422 L803.541,586.236 L804.808,586.025 L806.223,585.791 L807.786,585.534 L809.496,585.255 L811.349,584.955 L813.343,584.634 L815.476,584.293 L817.746,583.932 L820.152,583.552 L822.69,583.155 L825.359,582.74 L828.157,582.308 L831.082,581.86 L834.131,581.397 L837.303,580.919 L840.595,580.427 L844.006,579.922 L847.532,579.404 L851.173,578.873 L854.927,578.332 L858.789,577.779 L862.76,577.217 L866.837,576.645 L871.017,576.065 L875.299,575.476 L879.68,574.88 L884.159,574.277 L888.734,573.668 L893.401,573.054 L898.159,572.436 L903.007,571.813 L907.941,571.187 L912.961,570.558 L918.062,569.927 L923.245,569.294 L928.504,568.662 L936.535,567.713 L947.503,566.451 L958.748,565.198 L970.252,563.961 L981.999,562.743 L993.973,561.55 L1006.156,560.388 L1018.532,559.262 L1031.084,558.178 L1043.795,557.14 L1056.648,556.155 L1069.627,555.226 L1082.714,554.361 L1095.893,553.563 L1109.147,552.839 L1122.459,552.194 L1135.812,551.632 L1149.19,551.16 L1162.575,550.783 L1175.95,550.506 L1189.3,550.333 L1202.606,550.272 L1215.851,550.326 L1229.02,550.501 L1242.094,550.802 L1255.057,551.235 L1267.903,551.804 L1277.448,552.325 L1283.754,552.717 L1290.019,553.146 L1296.24,553.613 L1302.416,554.118 L1308.542,554.662 L1314.62,555.245 L1320.645,555.869 L1326.616,556.534 L1332.53,557.24 L1338.387,557.989 L1344.181,558.779 L1349.915,559.614 L1355.582,560.492 L1361.183,561.415 L1366.716,562.383 L1372.177,563.396 L1377.565,564.456 L1382.878,565.563 L1388.115,566.718 L1393.271,567.921 L1398.347,569.173 L1403.34,570.474 L1408.248,571.825 L1413.069,573.227 L1417.801,574.68 L1422.442,576.185 L1426.991,577.742 L1431.445,579.353 L1435.823,581.026 L1438.008,581.896 L1436.5,580.331 L1436.5,773.5 L1440.5,771.5 L0.5,771.5 L4.5,773.5 L4.5,633.73 L4.038,634.663 L5.219,633.542 L7.749,631.294 L10.456,629.08 L13.336,626.903 L16.388,624.761 L19.61,622.654 L23,620.582 L26.556,618.546 L30.275,616.544 L34.156,614.578 L38.195,612.647 L42.392,610.751 L46.743,608.89 L51.247,607.064 L55.9,605.273 L60.701,603.518 L65.647,601.797 L70.735,600.113 L75.964,598.463 L81.331,596.849 L86.833,595.27 L92.468,593.726 L98.232,592.218 L104.125,590.745 L110.142,589.307 L116.282,587.905 L122.543,586.538 L128.921,585.206 L135.414,583.909 L142.02,582.648 L148.734,581.422 L155.557,580.231 L162.485,579.075 L169.515,577.954 L176.645,576.868 L183.872,575.817 L191.192,574.801 L198.606,573.82 L206.108,572.873 L213.699,571.962 L221.373,571.085 L229.129,570.242 L236.964,569.434 L244.876,568.661 L252.862,567.922 L260.92,567.217 L269.047,566.546 L277.24,565.91 L285.498,565.308 L293.818,564.739 L302.196,564.205 L310.63,563.705 L319.119,563.238 L327.659,562.805 L336.248,562.406 L344.874,562.041 L357.9,561.555 L375.416,561.024 L393.072,560.626 L410.848,560.36 L428.722,560.225 L446.676,560.222 L464.688,560.348 L482.738,560.604 L500.806,560.989 L518.872,561.502 L536.916,562.142 L554.917,562.909 L572.856,563.802 L590.712,564.82 L608.464,565.963 L626.093,567.229 L643.586,568.62 L656.602,569.743 L665.219,570.53 L673.788,571.347 L682.308,572.194 L690.774,573.072 L699.187,573.979 L707.542,574.917 L715.836,575.884 L724.069,576.881 L732.236,577.908 L740.336,578.965 L748.366,580.051 L756.323,581.166 L764.205,582.311 L772.009,583.485 L779.734,584.688 L787.375,585.92 L794.93,587.181 L802.398,588.471 L809.776,589.789 L817.061,591.136 L824.25,592.511 L831.341,593.915 L838.332,595.347 L845.219,596.807 L852.001,598.295 L858.675,599.811 L865.237,601.354 L871.686,602.925 L878.02,604.523 L884.235,606.149 L890.329,607.802 L896.3,609.482 L902.144,611.189 L907.86,612.922 L913.445,614.682 L918.897,616.468 L924.228,618.286 L926.867,619.214 C928.674,619.849 931.169,619.632 932.44,618.728 C933.71,617.824 933.275,616.577 931.467,615.942 L931.467,615.942" fill="#175524"/>
    </g>
  </g>
</svg>
