<?xml version="1.0" encoding="UTF-8"?>
<!DOCTYPE svg PUBLIC "-//W3C//DTD SVG 1.1//EN" "http://www.w3.org/Graphics/SVG/1.1/DTD/svg11.dtd">
<svg version="1.1" xmlns="http://www.w3.org/2000/svg" xmlns:xlink="http://www.w3.org/1999/xlink" x="0" y="0" width="1009" height="660" viewBox="0, 0, 1009, 660">
  <g id="Layer_1">
    <path d="M523.4,-0 L527.3,-0 C534,0.4 540.4,2.9 545.8,7 C543.7,10.2 541.5,13.3 539.3,16.5 C534.6,13.6 529.5,10.7 523.8,11 C521.1,11.2 517.7,12.8 517.9,15.9 C517.8,18.3 520.1,19.8 522.1,20.6 C528.7,23.1 536.2,23.7 542,28 C548.5,32.7 548.7,42.5 544.8,48.9 C541.7,53.9 535.7,56.2 530.1,56.7 C520.4,57.7 510.7,54.2 503.3,48 C505.7,45 508.2,42.1 510.7,39.1 C516.6,43.7 524.5,47.7 532.1,44.9 C535.4,43.8 536.2,38.7 533,37 C527.7,34 521.3,33.6 515.8,31.2 C511.7,29.7 507.8,26.7 506.5,22.4 C504.9,16.8 505.7,10.1 509.8,5.8 C513.3,2.1 518.4,0.4 523.4,-0 z" fill="#000000"/>
    <path d="M847.5,0 C853.3,0.6 858.9,2.8 863.3,6.5 C874.8,15.7 876.6,34.2 867.6,45.7 C857.5,59.5 835,60.9 822.9,48.9 C812.8,39.4 811.7,22.2 820.1,11.2 C825,4.8 832.6,0.9 840.5,0 L847.5,0 z M844.322,11.314 C841.26,11.482 842.561,11.298 840.4,11.7 C830,13.6 824.6,26.5 829.1,35.8 C832.4,44.4 843.7,48.3 851.7,43.8 C860.1,39.5 862.8,27.8 858.2,19.8 C855.215,14.31 850.302,11.974 844.322,11.314 z" fill="#000000"/>
    <path d="M66.5,0.9 C70.7,0.7 74.8,0.6 79,0.7 C79,11.5 79,22.3 79,33.1 C79,37.6 81,42.7 85.4,44.5 C89.8,46.3 95.4,45.9 99,42.6 C101.8,39.8 102.5,35.7 102.5,32 C102.5,21.6 102.5,11.3 102.5,0.9 C106.6,0.7 110.7,0.7 114.7,0.8 C114.7,12.2 114.8,23.6 114.6,35.1 C114.3,43.3 110,51.8 102.1,54.9 C93.8,58.1 83.7,58 75.9,53.2 C69.3,49.1 66.6,40.9 66.5,33.5 C66.4,22.7 66.6,11.8 66.5,0.9 z" fill="#000000"/>
    <path d="M146.8,0.7 C150.6,0.6 154.4,0.6 158.1,0.7 C166.7,11.9 175.2,23.2 183.8,34.4 C183.8,23.2 183.8,12 183.8,0.8 C187.9,0.7 192,0.7 196,0.8 C196,19.2 196,37.6 196,56.1 C192.4,56.1 188.8,56.1 185.2,56.1 C176.5,44.6 167.8,33.1 159,21.7 C158.9,33.2 159,44.7 159,56.2 C154.9,56.2 150.8,56.2 146.8,56.2 C146.8,37.6 146.8,19.1 146.8,0.7 z" fill="#000000"/>
    <path d="M230.2,0.8 C234.3,0.7 238.4,0.7 242.4,0.8 C242.4,19.2 242.4,37.5 242.4,55.9 C238.3,55.9 234.2,55.9 230.2,55.9 C230.2,37.6 230.2,19.2 230.2,0.8 z" fill="#000000"/>
    <path d="M271.9,0.8 C276.5,0.6 281.1,0.6 285.7,0.8 C290.4,13.6 295.2,26.4 299.9,39.2 C304.7,26.4 309.4,13.6 314.2,0.8 C318.7,0.6 323.1,0.6 327.6,0.8 C320.2,19.4 312.7,37.9 305.3,56.5 C301.6,56.5 298,56.5 294.3,56.5 C286.8,37.9 279.3,19.4 271.9,0.8 z" fill="#000000"/>
    <path d="M356.2,0.9 C370.2,0.5 384.2,0.7 398.2,0.7 C398.2,4.4 398.2,8.1 398.2,11.8 C388.4,11.8 378.5,11.8 368.7,11.8 C368.7,15.5 368.7,19.1 368.7,22.8 C377.3,22.8 385.9,22.8 394.5,22.8 C394.5,26.5 394.5,30.1 394.5,33.8 C385.9,33.8 377.3,33.8 368.7,33.8 C368.7,37.6 368.7,41.3 368.7,45 C378.6,45 388.5,45 398.5,45 C398.5,48.7 398.5,52.3 398.5,56 C384.4,56 370.3,56 356.2,56 C356.2,37.6 356.2,19.2 356.2,0.9 z" fill="#000000"/>
    <path d="M442.45,0.637 L455.1,0.7 C461.2,0.8 467.8,2.4 472,7.1 C478.4,14.8 477.4,28 469.1,33.9 C467.6,34.9 466,35.7 464.4,36.5 C468.9,42.9 473.3,49.5 477.8,55.9 C472.9,55.9 468.1,55.9 463.2,55.9 C459.3,50.1 455.4,44.2 451.4,38.4 C448.3,38.4 445.2,38.4 442.1,38.4 C442.1,44.2 442.1,50.1 442.1,55.9 C438,55.9 433.9,55.9 429.9,55.9 C429.8,37.6 429.8,19.2 429.8,0.8 L442.45,0.637 z M452.775,11.903 C451.339,11.916 449.902,11.929 448.465,11.942 C447.025,11.978 445.586,12.038 444.146,12.051 C443.43,12.057 442.715,12.017 442,12 L442,27.5 C447.6,27.1 453.4,28.2 458.8,26.7 C464.8,24.7 465,15.1 459.1,12.9 C455.643,11.997 457.732,12.433 452.775,11.903 z" fill="#000000"/>
    <path d="M578.8,0.8 C583,0.7 587.1,0.7 591.3,0.8 C591.3,19.2 591.3,37.6 591.3,56 C587.1,56 583,56 578.8,56 C578.8,37.6 578.8,19.2 578.8,0.8 z" fill="#000000"/>
    <path d="M621.5,0.7 C636.7,0.6 652,0.5 667.3,0.7 C667.3,4.5 667.3,8.4 667.3,12.2 C661.7,12.2 656.1,12.2 650.5,12.2 C650.5,26.8 650.5,41.4 650.5,56 C646.4,56 642.3,56 638.3,56 C638.3,41.4 638.3,26.8 638.3,12.2 C632.7,12.2 627.1,12.2 621.5,12.2 C621.5,8.4 621.5,4.6 621.5,0.7 z" fill="#000000"/>
    <path d="M691.3,0.9 C696.1,0.6 701,0.6 705.8,0.8 C710.1,8.1 714.4,15.4 718.8,22.7 C723.2,15.4 727.7,8.1 732,0.8 C736.7,0.6 741.4,0.7 746.2,0.9 C739.1,11.9 732.1,23 725,34 C725,41.3 725,48.7 725,56 C720.8,56 716.7,56 712.5,56 C712.5,48.8 712.5,41.5 712.5,34.3 C705.4,23.2 698.3,12 691.3,0.9 z" fill="#000000"/>
    <path d="M899.2,0.8 C913.2,0.5 927.2,0.6 941.2,0.7 C941.2,4.4 941.2,8.2 941.2,11.9 C931.3,11.9 921.4,11.9 911.4,11.9 C911.4,15.7 911.4,19.6 911.4,23.4 C920.2,23.4 928.9,23.4 937.6,23.4 C937.6,27.2 937.6,30.9 937.6,34.6 C928.8,34.6 920.1,34.6 911.4,34.6 C911.4,41.7 911.4,48.8 911.4,55.8 C907.3,55.8 903.2,55.8 899.2,55.8 C899.2,37.6 899.2,19.2 899.2,0.8 z" fill="#000000"/>
    <path d="M79.6,91.5 C87.2,91.5 94.8,91.5 102.4,91.5 C111.3,118.5 120.2,145.4 129.1,172.4 C137.3,145.6 145.5,118.8 153.7,92 C163,92 172.3,92 181.5,92 C167.9,132.2 154.2,172.3 140.7,212.5 C133,212.5 125.3,212.5 117.6,212.5 C108.6,186.6 99.7,160.6 90.7,134.7 C81.8,160.7 72.8,186.6 63.8,212.6 C56.1,212.6 48.4,212.6 40.7,212.6 C27.1,172.6 13.5,132.5 -0,92.5 L-0,92 C9.4,92 18.9,92 28.4,92 C36.6,118.8 44.8,145.6 53,172.4 C61.8,145.4 70.7,118.4 79.6,91.5 z" fill="#000000"/>
    <path d="M808.758,90.662 C819.337,90.739 829.507,93.414 838.9,98.2 C852.8,105.4 863.6,118.4 868.2,133.5 C873.1,149.3 871.7,167.1 863.9,181.8 C857.7,193.6 847.5,203.1 835.4,208.6 C821.6,214.9 805.6,216.1 790.9,212.7 C775.7,209.2 762,199.8 753.5,186.6 C744.6,173 741.8,155.9 745,140 C747.7,126.4 755.2,113.8 766,105.1 C774.2,98.3 784.2,93.8 794.6,91.8 C799.269,90.864 804.019,90.776 808.758,90.662 z M806.817,115.221 C801.888,115.53 803.987,115.276 800.5,115.8 C795.3,116.7 790.3,118.9 786,122 C773.9,131 769,147.6 772.6,161.8 C775.2,173.5 783.8,183.8 795.2,187.8 C808.6,192.8 824.9,189.1 834.2,178.1 C847.1,163.3 846.1,138.6 831.9,125 C824.742,118.095 816.503,115.714 806.817,115.221 z" fill="#000000"/>
    <path d="M943.518,90.716 C960.186,90.211 976.104,95.501 988.9,106.2 C1000.2,116 1007.3,130.1 1009.1,144.8 L1009.1,160.3 C1007,178.4 996.4,195.2 980.8,204.8 C966.8,213.7 949.3,216.3 933,213.5 C916.8,210.7 901.6,201.4 892.5,187.6 C884.6,176.1 881.2,161.9 882.3,148.1 C883.3,131.8 891.2,116 903.7,105.6 C915.454,95.651 928.442,91.861 943.518,90.716 z M945.911,115.185 C940.204,115.499 942.634,115.223 938.6,115.8 C932.9,116.9 927.5,119.4 923.1,123.2 C910.7,133.4 906.9,151.7 912.4,166.5 C916.1,176.8 924.7,185.4 935.2,188.5 C949.5,193.1 966.6,187.8 975,175.1 C982.4,164.2 983.7,149.6 978.7,137.5 C975,128.2 967.3,120.6 957.9,117.3 C953.984,115.687 950.063,115.473 945.911,115.185 z" fill="#000000"/>
    <path d="M247.3,92 C264.4,132.2 281.5,172.3 298.5,212.5 C289.2,212.5 280,212.5 270.7,212.5 C267.1,203.6 263.4,194.7 259.8,185.7 C243,185.7 226.2,185.7 209.4,185.7 C205.8,194.6 202.1,203.5 198.6,212.4 C189.6,212.5 180.5,212.5 171.4,212.5 C188.5,172.3 205.6,132.2 222.7,92 L247.3,92 z M234.7,124 C229.5,136.8 224.3,149.5 219,162.2 L250.3,162.2 C245.2,149.4 239.9,136.7 234.7,124 z" fill="#000000"/>
    <path d="M290.5,117.2 C290.5,109 290.5,100.9 290.5,92.7 C323.6,92.7 356.7,92.7 389.7,92.7 C389.7,100.9 389.7,109 389.7,117.2 C377.6,117.2 365.5,117.2 353.4,117.2 C353.4,149 353.4,180.7 353.4,212.4 C344.5,212.4 335.6,212.4 326.6,212.4 C326.6,180.6 326.6,148.9 326.6,117.2 C314.7,117.2 302.6,117.2 290.5,117.2 z" fill="#000000"/>
    <path d="M409.5,212.5 C409.5,172.6 409.5,132.7 409.5,92.7 C439.7,92.7 469.8,92.7 500,92.7 C500,100.5 500,108.4 500,116.2 C478.7,116.2 457.3,116.2 436,116.2 C436,124.2 436,132.2 436,140.2 C454.8,140.2 473.5,140.2 492.2,140.2 C492.2,148.1 492.2,156 492.2,164 C473.4,164 454.7,164 436,164 C436,172.2 436,180.5 436,188.8 C457.6,188.8 479.2,188.8 500.8,188.8 C500.8,196.7 500.8,204.6 500.8,212.6 C470.3,212.5 439.9,212.5 409.5,212.5 z" fill="#000000"/>
    <path d="M583.456,92.742 C594.128,92.809 604.388,94.879 613.4,100.7 C621.6,106 626.8,115.1 628.2,124.7 C629.8,135.4 628.4,147.2 621.9,156.2 C617.4,162.7 610.6,167.1 603.4,169.9 C613.1,184.2 622.9,198.3 632.5,212.6 C622.1,212.7 611.7,212.6 601.4,212.6 C592.9,199.8 584.3,187.1 575.8,174.3 C569,174.3 562.1,174.3 555.3,174.3 C555.3,187.1 555.3,199.8 555.3,212.5 C546.5,212.5 537.6,212.5 528.8,212.5 L528.8,92.8 C545.5,92.8 562.3,92.8 579,92.8 L583.456,92.742 z M581,116.8 L555.2,116.8 C555.2,128.1 555.2,139.4 555.3,150.8 L582,150.8 C586.6,150.9 591.3,149.9 595.2,147.3 C604.2,141.3 604.2,125.6 594.8,120 C590.7,117.5 585.7,116.7 581,116.8 z" fill="#000000"/>
    <path d="M657.5,212.5 C657.5,172.6 657.5,132.7 657.5,92.7 C666.3,92.7 675.2,92.7 684,92.7 C684,124.5 684,156.4 684,188.2 C702.7,188.2 721.3,188.2 740,188.2 C740,196.3 740,204.4 740,212.4 C712.5,212.5 685,212.5 657.5,212.5 z" fill="#000000"/>
    <path d="M339,266.5 C448.4,266.5 557.7,266.5 667.1,266.5 C665.7,311 666,355.7 661,400.1 C656.2,444.4 645.6,488.6 625.5,528.6 C616.9,545.7 607.2,562.3 595.2,577.3 C570.8,607.8 538.3,631.1 503,647.3 C470.4,632.4 440.2,611.5 416.6,584.4 C402.2,568 390.8,549.2 381,529.8 C361.6,491.7 350.9,449.7 345.8,407.5 C340.1,360.7 340,313.5 339,266.5 z" fill="#262222"/>
    <path d="M345.5,273 C450.4,273 555.4,273 660.3,273 C659.3,320.1 659.1,367.4 652.6,414.1 C649.5,436.2 644.9,458.1 638.2,479.3 C593.2,443.7 548.3,407.9 503.3,372.3 C458.2,408.1 413,443.9 367.9,479.7 C354.5,437.5 349.7,393.1 347.8,349 C346.4,323.7 346.2,298.3 345.5,273 z" fill="#FBD150"/>
    <path d="M629,283 C635.9,280.3 644.8,285.4 645.2,293 C645.8,300 641.4,305.8 639,312 C636.7,317.8 633.8,323.9 634.5,330.3 C637.1,327.2 639,323.6 641.4,320.3 C640.6,324.2 639.7,328 639.5,332 C639.3,337.4 640.2,342.7 640.5,348 C641.1,352.8 635.7,356.1 636.5,360.9 C637.7,368.7 641.6,376 641.1,384 C641,388.4 638.6,392.7 635,395.2 C631.9,397.3 628,397.2 624.5,397.8 C624.7,400.4 624.4,403 625.3,405.5 C627.6,409.6 633.1,410.4 635.7,414 C636.1,421.5 631,427.9 630.1,435.1 C629.7,438.6 628.4,441.8 626.9,444.9 C625.5,443.2 624.9,439.3 621.9,440.2 C619.4,441.1 618,443.7 615.7,445 C613.3,445.5 610.7,445.2 608.3,445.2 C608.8,442.8 609.3,440.3 610,438 C607.7,437.9 605.5,437.8 603.2,437.5 C603,435.5 602.9,433.1 604.5,431.6 C606.4,430.5 608.7,430.5 610.8,430 C608.8,428.9 606.7,427.9 604.6,427 C605.7,425.3 606.5,423.4 608.1,422.2 C610,421.2 613.1,421.3 614,423.6 C615.4,426.6 616.1,430.1 618.7,432.4 C622.4,429.2 625.1,424.3 624.4,419.3 C623,415.2 618.9,412.4 614.8,411.8 C608.6,411.3 601.7,414.2 596.2,410.4 C591.3,406.3 591.6,398.6 594.1,393.3 C596.3,388.8 601.7,387.8 606.1,386.6 C601.2,376.8 592.2,370.5 584,363.7 C579.1,359.8 579.8,352.8 581.4,347.6 C583.5,349 585.5,350.5 587.4,352 C590.1,349 592.7,345.5 596.7,344.4 C600.9,343.2 605.2,344.4 609.2,345.6 C607.3,359 611.4,373.2 620.3,383.4 C622.2,385.5 623.2,388.1 624.2,390.7 C624.6,392.7 627,392.8 628.7,392.7 C633.3,392.2 637,387.6 636.7,382.9 C636.7,378.3 636.2,373.5 634.1,369.5 C633.3,367.9 631.2,366.4 629.4,367.6 C626.8,368.9 626.1,372 624.8,374.4 C623,370.7 620.3,366.2 622.9,362.2 C624.6,358.7 628.8,359.9 631.8,360.4 C630.4,350.8 627.4,341.1 629.2,331.4 C631.1,322.6 633.7,314 634.5,305 C635.3,300.9 630.1,298.1 626.8,300.1 C624.3,301.4 624.7,304.6 624.6,307 C624.7,312 624.2,317 623.2,322 C622,313.4 618.4,305 619.2,296.1 C620,290.5 623.7,285.1 629,283 z" fill="#CF1C43"/>
    <path d="M434,288.2 C435.9,287.6 437.5,286.3 439.2,285.2 C439.5,286.7 439.9,288.3 440,289.9 C438.9,291.7 437.4,293.2 436.4,295.1 C436.2,299 438.3,303.7 434.8,306.8 C428.2,314.2 417.3,312 408.6,313.5 C408.4,312.8 408,311.4 407.7,310.7 C410.7,310.3 414,310.5 416.5,308.6 C419.6,305 420.1,298 415.3,295.5 C411.5,294 407.7,296.3 404,297 C404.9,295.1 405.4,292.5 407.7,291.8 C412.1,290.1 416.5,288.6 420.8,286.9 C425.3,285 429.6,288.4 434,288.2 z" fill="#CF1C43"/>
    <path d="M589.2,287.2 C593.7,284.7 598.3,288.1 602.6,289.4 C606.1,291 609.7,289.2 613,288 C613,289.7 613.1,291.3 613.2,293 C611.8,294.3 610.2,295.5 609,297 C606.9,300.3 607.2,305.2 603.5,307.4 C600.4,309 597.4,310.7 594.2,312 C588.9,313.5 583.2,312.7 577.9,311.5 C578.2,310.8 578.5,310.1 578.8,309.3 C581.6,309 585,309.4 587,307 C590,304.1 589.5,299 587.2,295.9 C586.3,294.6 584.5,294.8 583.1,295 C580.2,295.5 577.4,296.2 574.6,296.8 C575.3,294.8 575.4,291.6 578.2,291.2 C581.9,290.2 585.7,289.2 589.2,287.2 z" fill="#CF1C43"/>
    <path d="M359.6,289.5 C361.9,288.5 364.2,286.4 366.9,287.3 C370,287.9 370.2,291.5 371.2,293.9 C372,294.4 372.8,294.9 373.5,295.4 C373.7,292.3 374.9,289.5 376.6,287 C378.5,288.7 381.7,290.1 381.5,293.1 C381.4,297.7 380.9,302.6 383.1,306.9 C387.9,316.8 398.5,322.4 408.8,324.8 C406.8,327.6 405.1,330.5 403.5,333.5 C400.6,333.4 397.7,333.4 394.8,333.4 C394.5,332.3 394.1,331.3 393.8,330.2 C391.1,328.9 388.3,327.9 385.7,326.3 C382.8,324.3 382.4,320.4 380.1,317.8 C378.6,316.6 376.7,316.1 375,315.4 C375,313.6 375.3,311.5 373.9,310 C371.3,306.2 366.5,305.4 362.4,304.5 C361.9,303.6 361.4,302.8 360.9,301.9 C360.2,301.6 358.9,301.1 358.2,300.8 C360.6,299.1 363.2,297.7 365.9,296.3 C362.7,295.2 360.6,292.7 359.6,289.5 z" fill="#CF1C43"/>
    <path d="M417.4,294.2 C418.7,292.6 419.7,290.1 422,289.6 C424.1,289.9 426.2,291.1 426.8,293.3 C423.8,294.5 420.6,294.6 417.4,294.2 z" fill="#FBD150"/>
    <path d="M477.4,294.5 C484,289.4 493,288.5 500.8,291.1 C509.2,293.8 517.4,297.6 526.4,297.5 C523.1,302.7 517.8,306.2 512,308 C507.2,309.2 502.4,308 497.6,307.8 C499.2,310.5 500.6,313.4 501.5,316.4 C495.9,312.4 489.3,308.6 482.1,310.1 C475.9,311.5 472.6,317.7 470.4,323 C468.7,326.9 469.2,331.2 470.8,335 C472.3,329.9 476.9,327.3 480.1,323.5 C481.3,325.1 483.3,326.5 483.1,328.8 C483,332.3 479.5,334.2 477.9,337 C478.1,340.7 479.9,344.5 478.5,348.2 C475.8,356.2 475.4,365.7 469,371.8 C465.8,375.2 461,375.7 456.7,375.8 C455.5,379.4 454.2,383.4 450.8,385.6 C447,388.3 442.2,387.1 437.9,387 C439.8,392.9 444.9,396.6 449.4,400.5 C442.1,404.1 434.6,407.6 428.6,413.2 C425,416.5 423,421.1 420,424.8 C418.8,423.3 417.5,421.9 416.2,420.5 C413.6,423.3 411.4,426.4 408.6,429 C407.5,428.6 406.5,428.2 405.4,427.8 C404.8,428.2 403.5,429 402.9,429.4 C402.6,427.9 402.1,426.3 402,424.8 C402.8,422.7 404.3,421 405.5,419.1 C403.7,419.4 401.8,419.8 400,420.2 C399.2,418.5 397.6,416.6 399,414.7 C400.4,411 405.5,411.9 407.3,408.5 C406.3,408.7 404.3,409 403.3,409.2 C403.8,406.1 405.3,402.3 409.1,402.9 C412.9,404.7 416.3,408.6 421,407.2 C425.7,405.9 430.8,403.8 433.7,399.8 C433.6,399.3 433.3,398.3 433.2,397.8 C427.6,395.5 420.7,395.4 416.5,390.3 C411.3,385.2 413.7,375.6 420.2,372.8 C424.5,370.4 429.4,371.8 433.8,372.8 C429.9,364.8 419.2,366.1 413.8,359.9 C412.3,358.2 413.3,355.7 415,354.6 C419.7,351.2 425.8,352.1 431.2,351.4 C434.7,351.2 437.9,349.9 441,348.4 C443.3,355.6 446.3,363.2 452.5,368 C455.3,370.2 459.2,372.2 462.8,370.4 C467.9,367.8 470.9,362.1 471.4,356.6 C471.8,353.3 469.6,350.2 466.6,349.1 C463.9,347.8 461,349 458.3,349.7 C459,347.2 459,343.7 461.9,342.6 C464.5,341.7 467.3,341.9 469.9,341.5 C465.7,334.4 461.7,326.2 463.3,317.6 C465.1,308.9 470.1,300.3 477.4,294.5 z" fill="#CF1C43"/>
    <path d="M587.2,294.2 C588.1,292.4 588.4,289.5 591,289.5 C593.3,289.8 595.4,290.8 597.6,291.7 C594.3,293 590.8,293.9 587.2,294.2 z" fill="#FBD150"/>
    <path d="M549.9,290.4 C552.5,291.4 556.1,292.1 557,295.2 C557.5,299.3 556.6,304 559.6,307.3 C565,313.9 573.6,316.5 579.8,322 C577.5,324.6 575.4,327.2 573.4,330 C569.2,326.5 564.3,323.6 558.7,323.3 C559.4,322.4 560.2,321.5 560.9,320.6 C558.6,316.9 555.6,313.6 551.6,311.9 C550,313.5 548.5,315.3 546.6,316.6 C544.3,316.8 542.1,316.5 539.8,316.5 C540.4,313.7 541.2,310.9 542.4,308.3 C544.1,307.9 545.8,307.5 547.4,307.1 C543.7,306.1 540.5,304 537.9,301.4 C539.7,300 541.2,296.9 543.9,297.8 C545.4,298.1 546.8,298.6 548.3,299.1 C548.8,296.2 549.5,293.3 549.9,290.4 z" fill="#CF1C43"/>
    <path d="M441.3,295.6 C446,302.5 449.1,310.7 448.7,319.1 C448.3,325.7 444.1,331.4 443.9,338.1 C443.7,341.1 445.4,343.7 446.7,346.4 C443.3,345.7 440.1,344.6 436.9,343.4 C436.9,345.2 437,347 437,348.8 C434.7,347.2 432.4,345.6 430.1,344.1 C426.6,346.5 423.1,349.3 418.9,350.3 C415.8,351.2 412.5,351 409.3,351.8 C407.8,352.8 406.8,354.4 405.6,355.7 C404.6,347.8 405,339.3 408.8,332.1 C414.2,323.3 424.7,320.5 432.8,315.1 C439.2,310.6 441.1,302.7 441.3,295.6 z" fill="#CF1C43"/>
    <path d="M563.3,299.4 C567.6,300.1 571.9,299.6 576.1,298.8 C579.5,298 582.5,300 585.2,301.9 C580.9,303.4 576.8,306.3 572,305.4 C568.2,305 565.7,302.1 563.3,299.4 z" fill="#CF1C43"/>
    <path d="M612.8,299.6 C614.6,303.5 616.1,307.6 616,311.9 C615.8,322.5 610.8,332.5 611.9,343.1 C607.6,340.9 602.8,339.3 598,340.3 C593.8,340.7 590.3,343.4 587.2,346.1 C583.2,343.3 578.5,341.9 574.2,339.9 C573.2,333.8 578.6,329.3 582.5,325.5 C589.1,318.8 598.7,316.7 605.6,310.5 C609,307.7 610.8,303.5 612.8,299.6 z" fill="#CF1C43"/>
    <path d="M390.5,303.7 C395.8,303.3 400.8,301.5 406.1,301.2 C409.8,300.9 412.4,303.8 414.8,306.2 C409.2,306.7 403.6,308.2 398,307.7 C394.9,307.5 392.7,305.4 390.5,303.7 z" fill="#CF1C43"/>
    <path d="M540.2,323.6 C542.5,324.4 545.6,324.5 546.9,327 C549,331 549,335.8 551.1,339.8 C552.5,342.6 555,344.9 558.1,345.9 C564.2,347.9 570.5,349.2 576.9,349.7 C575.7,355.6 576,362.1 580,366.9 C574.4,364.2 568,363.1 563.3,358.8 C560,355.8 555.9,354 551.5,353 C551.7,351.6 551.8,350.2 552,348.8 C549.3,348.9 545.9,347.7 543.9,350 C541.3,352.8 538.2,355 534.8,356.5 C534.1,354 532.8,351.6 533.1,349 C534.2,346.4 537.3,345.4 539.4,343.8 C537.4,341.3 534.6,343.1 532.1,343.6 C530.1,343.1 528.2,342.1 526.3,341.4 C527,338.8 527.2,335.3 530,334.1 C534.1,332 538,335.4 541.4,337.4 C540,335 538.2,332.7 537.5,330 C537.9,327.7 539.3,325.7 540.2,323.6 z" fill="#CF1C43"/>
    <path d="M361.6,326.3 C363.9,326.1 366.3,325.3 368.5,326.5 C373,328.9 372.7,335.4 377.3,337.6 C384.7,341.4 393.6,343.1 401.6,339.8 C401.1,343.7 401.2,347.5 401.4,351.4 C395.7,352.3 390.4,349.9 385,348.5 C381.9,348.7 379.3,351 376.4,352.2 C375.9,350.5 376.2,348.3 374.7,347.2 C372.1,346.5 370.3,348.8 368.4,350 C366.5,350.2 364.6,350.5 362.6,350.8 C361.6,347.4 363.3,344.4 364,341.2 C362,340.1 359.6,340.1 357.4,339.9 C357.6,338.3 357.7,336.7 358.4,335.2 C359.9,333.7 362.1,333.4 364,332.7 C363.1,330.6 362.4,328.5 361.6,326.3 z" fill="#CF1C43"/>
    <path d="M397.4,371.1 C398.3,367.5 401.1,363.7 405.1,363.4 C410.1,362.9 414.2,366.6 417.9,369.3 C414.1,371.6 410.4,374.5 409.2,379 C407.8,382.6 408.8,386.4 410,389.9 C402.7,388.4 395.5,391.3 389.5,395.3 C390.6,393 391.2,389.9 388.4,388.5 C385.7,386.3 383.9,389.8 382.3,391.6 C380.8,394.1 377.5,393.9 375,394.6 C374.5,394.1 373.4,393.3 372.8,392.8 C372.7,391.7 372.6,390.5 372.5,389.4 C373.2,388.1 373.9,386.8 374.6,385.5 C372.3,386.1 369.8,386.7 368.5,389 C366.2,387.2 363.8,384.6 365.4,381.5 C367.3,377.1 372.7,378.6 376.4,379.2 C374.3,377 372.3,374.7 370.2,372.4 C371.7,368.8 375.7,366.9 379.4,368.6 C383.6,370.1 383.2,375.3 384.5,378.8 C385,381.4 387.9,382.1 390.1,382.7 C392.8,383.5 396,383 398,380.8 C398.3,377.5 397.1,374.4 397.4,371.1 z" fill="#CF1C43"/>
    <path d="M582.1,380.1 C583.7,376.7 588.3,375.9 591.4,377.7 C594.4,379.1 595.9,382.1 597.3,384.8 C594.3,387.6 590.7,390.2 589.1,394.1 C587.6,397.4 588.1,401.1 588.3,404.6 C581.8,402.6 575.4,404.8 569.4,407.4 C567,404.5 563.4,403.7 559.9,404.6 C559.6,405.4 559.1,407 558.8,407.8 C557.5,406.6 556.1,405.5 555,404.1 C555.2,401.9 555.9,399.7 556.3,397.6 C555.7,398.2 554.5,399.5 554,400.1 C552.2,398.6 549.7,397.6 549.2,395.1 C549.8,391 555,391.2 556.8,387.9 C555.6,387.9 553.1,388 551.9,388.1 C553.2,385.9 553.9,382.6 556.9,382.2 C559.3,381.8 562.8,382.3 563.6,385.1 C565.2,389.4 566.4,394.7 570.9,397 C574,399.2 578.8,397.8 580.1,394.2 C581.8,389.7 580.1,384.5 582.1,380.1 z" fill="#CF1C43"/>
    <path d="M374.5,498.8 C417.4,464.8 460.3,430.8 503.2,396.7 C545.9,430.6 588.6,464.6 631.4,498.5 C628.2,506.9 624.6,515.2 620.7,523.3 C581.5,492.2 542.4,461.1 503.2,430.1 C463.9,461.3 424.6,492.5 385.2,523.6 C381.4,515.4 377.7,507.2 374.5,498.8 z" fill="#FFFFFF"/>
    <path d="M394.4,540.8 C430.6,512 467,483.3 503.3,454.4 C539.4,483.1 575.6,511.8 611.7,540.5 C604.2,553.7 596,566.5 586.1,577.9 C563.6,604.5 534.4,625 503.1,640 C471.9,625.3 443,604.9 420.4,578.6 C410.3,567.1 401.9,554.1 394.4,540.8 z" fill="#FBD150"/>
    <path d="M517,481 C519.8,481.2 522.1,479.4 524.4,478.2 C523.8,480.7 522.7,483 520.9,484.9 C517.7,488.1 518.7,494 514.3,496.2 C506.3,500.6 497.9,504.7 488.7,505.5 C489.3,501.3 494.9,501.7 496.1,497.9 C496.7,494.8 496.1,491.2 493.9,488.9 C491.1,488.2 488.5,490 485.8,490.6 C486.8,489 487.4,487.1 488.9,485.9 C491,484.5 493.6,484.2 495.9,483.7 C498,481.8 499.9,479.3 502.9,479.1 C507.7,478.5 512.2,480.7 517,481 z" fill="#CF1C43"/>
    <path d="M501.8,487.2 C499.8,485.2 501.5,483.2 503.5,482.1 C505.7,482.7 508,483.3 510.2,483.9 C507.6,485.3 504.9,486.8 501.8,487.2 z" fill="#FBD150"/>
    <path d="M523.7,488.6 C525.2,490.8 526.9,493.1 526.9,495.9 C527.6,507.1 523,517.8 523.7,529 C523.7,533 525.2,536.7 526.7,540.3 C524.5,539.2 522.5,537.8 520.1,537.4 C518.7,538.8 517.6,540.4 516.5,541.9 C511,538.4 505.6,533.4 505,526.5 C500.8,529 496,530 491.2,530.8 C491.8,528.7 492.5,526.6 493.1,524.4 C489.5,524.9 486.5,526.9 483.6,528.9 C485.6,519.8 490.7,510.3 500,507 C506.2,504.9 512.7,503 517.6,498.4 C520.6,495.9 522.1,492.2 523.7,488.6 z" fill="#CF1C43"/>
    <path d="M474.3,494.2 C479.3,495.1 484,492.8 488.9,492.4 C491,493.1 492.8,494.6 494.6,495.9 C490.1,497.2 485.7,499.2 480.9,499 C477.9,498.8 476.2,496.1 474.3,494.2 z" fill="#CF1C43"/>
    <path d="M466.3,503 C466.7,501 467.8,499.1 468.6,497.2 C470.5,498.2 472.7,499.1 474.3,500.6 C476.8,503.6 474.5,508.6 477.9,511.1 C480.1,512.8 482.9,513.2 485.5,513.9 C484.1,516.4 483.1,519.2 481.4,521.5 C478.2,523.2 474.5,523.6 471.2,524.7 C470.7,522.4 471.4,519.3 469,517.9 C465.3,517.4 463.6,522.4 459.9,521.8 C458.1,521.8 456.4,521.8 454.7,521.8 C454.2,518.9 453.3,515.2 456.1,513.1 C458.4,512.7 460.7,512.7 463.1,512.5 C459.4,510.9 455.8,509.3 452.8,506.6 C454.4,503.7 457.3,500.1 461,502.1 C463.9,504.4 465.9,507.7 469.2,509.5 C468.2,507.3 467,505.3 466.3,503 z" fill="#CF1C43"/>
    <path d="M534.5,517.9 C532.5,512.9 534.6,505.9 540.1,504.2 C546.5,502.5 553.4,505.5 557.6,510.5 C564.3,518.3 565.7,529.2 563.8,539 C565.8,537.4 567.5,535.4 570,534.6 C572,534.9 574,535.6 575.9,536.2 C573.4,538.8 570.4,541.4 569.4,545.1 C568.5,547.8 569.2,550.6 569.7,553.3 C566.8,554.3 563.7,555.4 561.8,558.1 C556.5,564.6 555.1,574.4 546.9,578.2 C539.9,581.7 532.2,578.9 525.4,576.6 C526.3,579.5 527.1,582.6 529.2,584.9 C532.3,588.3 536.5,590.5 540.4,592.9 C535.7,597.6 532,603 527.8,608.1 C525.3,611.3 521.7,613.3 518.4,615.7 C516.9,615.6 515.4,615.4 513.9,615.3 C514.2,614.1 514.6,612.8 514.9,611.6 C512.9,611.4 510.6,610.8 509,612.4 C506.4,614.1 506,617.5 504.6,620.1 C501.8,620.5 498.8,620.6 496.4,622.2 C496.2,619.9 495.4,617.3 496.7,615.2 C498.4,612.7 500.9,610.8 502.9,608.5 C500.5,608.5 498.2,609.4 495.9,609.9 C493.7,609.3 491.7,608.2 489.5,607.3 C491.5,604.8 493.4,601.7 496.8,601 C499.8,599.9 502.6,601.8 505.2,603.1 C503.5,601.1 501.9,599 500.7,596.7 C500.4,596.3 499.9,595.4 499.6,595 C503.1,593.7 507.4,592.5 510.4,595.4 C511.3,598.1 511.1,601.4 513.3,603.6 C514.6,604.9 516.4,606.2 518.3,605.8 C521.8,603.7 523.3,599.7 524.9,596.1 C519.6,590.1 511.7,587.9 505.3,583.5 C501.1,580.8 498,576.2 497.8,571.1 C497.9,567.5 500.2,564.2 503.6,562.9 C507.2,561.1 511.3,562.8 515,563.4 C511.6,559.8 507.6,556.8 503,554.8 C499.2,553 494.9,552 491.5,549.4 C487,545.8 485.2,539.4 486.8,534 C491.5,532.5 496.9,534.7 501.1,531.3 C505.6,537.1 509.5,543.6 516.1,547.3 C517.4,545.4 518.8,543.4 520.2,541.6 C524.4,549.7 521.1,559.4 525.2,567.5 C527.9,572.8 533.7,576.8 539.8,576.1 C547.1,575.4 552.7,568.8 554.5,562 C555.6,558.5 552.8,553.9 548.8,554.3 C545.6,555.3 543.4,558.2 540.9,560.2 C541.4,556.1 541.3,551.2 544.6,548.1 C547.3,546.7 550.6,546.7 553.1,544.9 C551.6,543 549.5,541.7 547.5,540.3 C550.9,540.8 554.3,541.3 557.7,542 C560.8,534.7 562.1,526 558.2,518.6 C556.2,514.3 552.1,511.5 547.8,509.8 C547.3,510.4 546.1,511.5 545.6,512.1 C548.7,515.2 552.9,517.8 554.1,522.3 C554.8,525.1 553,527.5 550.5,528.5 C549.6,533.8 546.7,538.3 542.9,542.1 C543,537.7 543,533 541,528.9 C539.7,524.7 536.6,521.6 534.5,517.9 z" fill="#CF1C43"/>
    <path d="M435.8,523 C438.4,520.9 441.6,517.8 445.1,519.8 C449.8,521.3 449.3,527 451.6,530.3 C461,535.6 472.5,535.6 482.9,533.7 C482.6,539.5 483.8,545.6 487.9,550 C481.6,547.9 475,546.9 469.1,543.6 C466.9,542.5 464.6,540.8 462,541.2 C458.5,541.6 455.3,543.2 452,544.4 C451.7,541.5 451.1,538.2 447.9,537.3 C446.4,539.2 445.9,541.6 444.8,543.7 C443.4,544.9 441.6,545.7 440,546.6 C438.8,545.1 437.2,543.8 436.6,541.9 C436.9,540.5 437.5,539.1 437.9,537.7 C435.2,538.1 432.5,538.3 429.8,538.5 C430.2,535.4 428.9,530.9 432.2,529 C435.2,527.7 438.5,528.7 441.7,528.8 C439.8,527 437.8,525 435.8,523 z" fill="#CF1C43"/>
    <path d="M475.9,564 C474.8,558.9 479.9,553.5 485,554.2 C491.1,554.8 495.7,559.6 501.9,560.2 C493.9,563.2 492.9,573.8 497.5,580.1 C488.3,578.8 480.1,583.7 472.5,588 C472.2,586.5 472,584.9 471.5,583.4 C469.7,582.5 467.7,583.2 465.8,583.2 C464.1,583.3 462.1,583.1 460.9,584.7 C458.6,587.1 455.9,589 453.1,590.7 C452.4,589.5 451.6,588.2 450.9,587 C451.1,584.7 452.2,582.1 451,579.9 C448.7,579.3 446.5,580.4 444.4,581 C444.4,578 443.5,574.4 446.1,572.2 C448.5,572 450.9,572.3 453.3,572.2 C453.6,569 450,569.5 447.9,568.9 C448.9,566.4 449.7,562.7 453,562.7 C454.9,562.6 457.9,562.6 458.4,565 C459.4,567.9 460.4,571.2 463.5,572.5 C469,575 475.5,574.2 481.2,572.5 C479.7,569.5 477.1,567.2 475.9,564 z" fill="#CF1C43"/>
  </g>
</svg>
