<?xml version="1.0" encoding="UTF-8"?>
<!DOCTYPE svg PUBLIC "-//W3C//DTD SVG 1.1//EN" "http://www.w3.org/Graphics/SVG/1.1/DTD/svg11.dtd">
<svg version="1.1" xmlns="http://www.w3.org/2000/svg" xmlns:xlink="http://www.w3.org/1999/xlink" x="0" y="0" width="1050" height="724" viewBox="0, 0, 1050, 724">
  <g id="Background">
    <rect x="0" y="0" width="1050" height="724" fill="#FFFFFF"/>
  </g>
  <g id="Layer_1">
    <path d="M543.9,32 L547.8,32 C554.5,32.4 560.9,34.9 566.3,39 C564.2,42.2 562,45.3 559.8,48.5 C555.1,45.6 550,42.7 544.3,43 C541.6,43.2 538.2,44.8 538.4,47.9 C538.3,50.3 540.6,51.8 542.6,52.6 C549.2,55.1 556.7,55.7 562.5,60 C569,64.7 569.2,74.5 565.3,80.9 C562.2,85.9 556.2,88.2 550.6,88.7 C540.9,89.7 531.2,86.2 523.8,80 C526.2,77 528.7,74.1 531.2,71.1 C537.1,75.7 545,79.7 552.6,76.9 C555.9,75.8 556.7,70.7 553.5,69 C548.2,66 541.8,65.6 536.3,63.2 C532.2,61.7 528.3,58.7 527,54.4 C525.4,48.8 526.2,42.1 530.3,37.8 C533.8,34.1 538.9,32.4 543.9,32 z" fill="#000000"/>
    <path d="M868,32 C873.8,32.6 879.4,34.8 883.8,38.5 C895.3,47.7 897.1,66.2 888.1,77.7 C878,91.5 855.5,92.9 843.4,80.9 C833.3,71.4 832.2,54.2 840.6,43.2 C845.5,36.8 853.1,32.9 861,32 L868,32 z M864.822,43.314 C861.76,43.482 863.061,43.298 860.9,43.7 C850.5,45.6 845.1,58.5 849.6,67.8 C852.9,76.4 864.2,80.3 872.2,75.8 C880.6,71.5 883.3,59.8 878.7,51.8 C875.715,46.31 870.802,43.974 864.822,43.314 z" fill="#000000"/>
    <path d="M87,32.9 C91.2,32.7 95.3,32.6 99.5,32.7 C99.5,43.5 99.5,54.3 99.5,65.1 C99.5,69.6 101.5,74.7 105.9,76.5 C110.3,78.3 115.9,77.9 119.5,74.6 C122.3,71.8 123,67.7 123,64 C123,53.6 123,43.3 123,32.9 C127.1,32.7 131.2,32.7 135.2,32.8 C135.2,44.2 135.3,55.6 135.1,67.1 C134.8,75.3 130.5,83.8 122.6,86.9 C114.3,90.1 104.2,90 96.4,85.2 C89.8,81.1 87.1,72.9 87,65.5 C86.9,54.7 87.1,43.8 87,32.9 z" fill="#000000"/>
    <path d="M167.3,32.7 C171.1,32.6 174.9,32.6 178.6,32.7 C187.2,43.9 195.7,55.2 204.3,66.4 C204.3,55.2 204.3,44 204.3,32.8 C208.4,32.7 212.5,32.7 216.5,32.8 C216.5,51.2 216.5,69.6 216.5,88.1 C212.9,88.1 209.3,88.1 205.7,88.1 C197,76.6 188.3,65.1 179.5,53.7 C179.4,65.2 179.5,76.7 179.5,88.2 C175.4,88.2 171.3,88.2 167.3,88.2 C167.3,69.6 167.3,51.1 167.3,32.7 z" fill="#000000"/>
    <path d="M250.7,32.8 C254.8,32.7 258.9,32.7 262.9,32.8 C262.9,51.2 262.9,69.5 262.9,87.9 C258.8,87.9 254.7,87.9 250.7,87.9 C250.7,69.6 250.7,51.2 250.7,32.8 z" fill="#000000"/>
    <path d="M292.4,32.8 C297,32.6 301.6,32.6 306.2,32.8 C310.9,45.6 315.7,58.4 320.4,71.2 C325.2,58.4 329.9,45.6 334.7,32.8 C339.2,32.6 343.6,32.6 348.1,32.8 C340.7,51.4 333.2,69.9 325.8,88.5 C322.1,88.5 318.5,88.5 314.8,88.5 C307.3,69.9 299.8,51.4 292.4,32.8 z" fill="#000000"/>
    <path d="M376.7,32.9 C390.7,32.5 404.7,32.7 418.7,32.7 C418.7,36.4 418.7,40.1 418.7,43.8 C408.9,43.8 399,43.8 389.2,43.8 C389.2,47.5 389.2,51.1 389.2,54.8 C397.8,54.8 406.4,54.8 415,54.8 C415,58.5 415,62.1 415,65.8 C406.4,65.8 397.8,65.8 389.2,65.8 C389.2,69.6 389.2,73.3 389.2,77 C399.1,77 409,77 419,77 C419,80.7 419,84.3 419,88 C404.9,88 390.8,88 376.7,88 C376.7,69.6 376.7,51.2 376.7,32.9 z" fill="#000000"/>
    <path d="M462.95,32.637 L475.6,32.7 C481.7,32.8 488.3,34.4 492.5,39.1 C498.9,46.8 497.9,60 489.6,65.9 C488.1,66.9 486.5,67.7 484.9,68.5 C489.4,74.9 493.8,81.5 498.3,87.9 C493.4,87.9 488.6,87.9 483.7,87.9 C479.8,82.1 475.9,76.2 471.9,70.4 C468.8,70.4 465.7,70.4 462.6,70.4 C462.6,76.2 462.6,82.1 462.6,87.9 C458.5,87.9 454.4,87.9 450.4,87.9 C450.3,69.6 450.3,51.2 450.3,32.8 L462.95,32.637 z M473.275,43.903 C471.839,43.916 470.402,43.929 468.965,43.942 C467.525,43.978 466.086,44.038 464.646,44.051 C463.93,44.057 463.215,44.017 462.5,44 L462.5,59.5 C468.1,59.1 473.9,60.2 479.3,58.7 C485.3,56.7 485.5,47.1 479.6,44.9 C476.143,43.997 478.232,44.433 473.275,43.903 z" fill="#000000"/>
    <path d="M599.3,32.8 C603.5,32.7 607.6,32.7 611.8,32.8 C611.8,51.2 611.8,69.6 611.8,88 C607.6,88 603.5,88 599.3,88 C599.3,69.6 599.3,51.2 599.3,32.8 z" fill="#000000"/>
    <path d="M642,32.7 C657.2,32.6 672.5,32.5 687.8,32.7 C687.8,36.5 687.8,40.4 687.8,44.2 C682.2,44.2 676.6,44.2 671,44.2 C671,58.8 671,73.4 671,88 C666.9,88 662.8,88 658.8,88 C658.8,73.4 658.8,58.8 658.8,44.2 C653.2,44.2 647.6,44.2 642,44.2 C642,40.4 642,36.6 642,32.7 z" fill="#000000"/>
    <path d="M711.8,32.9 C716.6,32.6 721.5,32.6 726.3,32.8 C730.6,40.1 734.9,47.4 739.3,54.7 C743.7,47.4 748.2,40.1 752.5,32.8 C757.2,32.6 761.9,32.7 766.7,32.9 C759.6,43.9 752.6,55 745.5,66 C745.5,73.3 745.5,80.7 745.5,88 C741.3,88 737.2,88 733,88 C733,80.8 733,73.5 733,66.3 C725.9,55.2 718.8,44 711.8,32.9 z" fill="#000000"/>
    <path d="M919.7,32.8 C933.7,32.5 947.7,32.6 961.7,32.7 C961.7,36.4 961.7,40.2 961.7,43.9 C951.8,43.9 941.9,43.9 931.9,43.9 C931.9,47.7 931.9,51.6 931.9,55.4 C940.7,55.4 949.4,55.4 958.1,55.4 C958.1,59.2 958.1,62.9 958.1,66.6 C949.3,66.6 940.6,66.6 931.9,66.6 C931.9,73.7 931.9,80.8 931.9,87.8 C927.8,87.8 923.7,87.8 919.7,87.8 C919.7,69.6 919.7,51.2 919.7,32.8 z" fill="#000000"/>
    <path d="M100.1,123.5 C107.7,123.5 115.3,123.5 122.9,123.5 C131.8,150.5 140.7,177.4 149.6,204.4 C157.8,177.6 166,150.8 174.2,124 C183.5,124 192.8,124 202,124 C188.4,164.2 174.7,204.3 161.2,244.5 C153.5,244.5 145.8,244.5 138.1,244.5 C129.1,218.6 120.2,192.6 111.2,166.7 C102.3,192.7 93.3,218.6 84.3,244.6 C76.6,244.6 68.9,244.6 61.2,244.6 C47.6,204.6 34,164.5 20.5,124.5 L20.5,124 C29.9,124 39.4,124 48.9,124 C57.1,150.8 65.3,177.6 73.5,204.4 C82.3,177.4 91.2,150.4 100.1,123.5 z" fill="#000000"/>
    <path d="M829.258,122.662 C839.837,122.739 850.007,125.414 859.4,130.2 C873.3,137.4 884.1,150.4 888.7,165.5 C893.6,181.3 892.2,199.1 884.4,213.8 C878.2,225.6 868,235.1 855.9,240.6 C842.1,246.9 826.1,248.1 811.4,244.7 C796.2,241.2 782.5,231.8 774,218.6 C765.1,205 762.3,187.9 765.5,172 C768.2,158.4 775.7,145.8 786.5,137.1 C794.7,130.3 804.7,125.8 815.1,123.8 C819.769,122.864 824.519,122.776 829.258,122.662 z M827.317,147.221 C822.388,147.53 824.487,147.276 821,147.8 C815.8,148.7 810.8,150.9 806.5,154 C794.4,163 789.5,179.6 793.1,193.8 C795.7,205.5 804.3,215.8 815.7,219.8 C829.1,224.8 845.4,221.1 854.7,210.1 C867.6,195.3 866.6,170.6 852.4,157 C845.242,150.095 837.003,147.714 827.317,147.221 z" fill="#000000"/>
    <path d="M964.018,122.716 C980.686,122.211 996.604,127.501 1009.4,138.2 C1020.7,148 1027.8,162.1 1029.6,176.8 L1029.6,192.3 C1027.5,210.4 1016.9,227.2 1001.3,236.8 C987.3,245.7 969.8,248.3 953.5,245.5 C937.3,242.7 922.1,233.4 913,219.6 C905.1,208.1 901.7,193.9 902.8,180.1 C903.8,163.8 911.7,148 924.2,137.6 C935.954,127.651 948.942,123.861 964.018,122.716 z M966.411,147.185 C960.704,147.499 963.134,147.223 959.1,147.8 C953.4,148.9 948,151.4 943.6,155.2 C931.2,165.4 927.4,183.7 932.9,198.5 C936.6,208.8 945.2,217.4 955.7,220.5 C970,225.1 987.1,219.8 995.5,207.1 C1002.9,196.2 1004.2,181.6 999.2,169.5 C995.5,160.2 987.8,152.6 978.4,149.3 C974.484,147.687 970.563,147.473 966.411,147.185 z" fill="#000000"/>
    <path d="M267.8,124 C284.9,164.2 302,204.3 319,244.5 C309.7,244.5 300.5,244.5 291.2,244.5 C287.6,235.6 283.9,226.7 280.3,217.7 C263.5,217.7 246.7,217.7 229.9,217.7 C226.3,226.6 222.6,235.5 219.1,244.4 C210.1,244.5 201,244.5 191.9,244.5 C209,204.3 226.1,164.2 243.2,124 L267.8,124 z M255.2,156 C250,168.8 244.8,181.5 239.5,194.2 L270.8,194.2 C265.7,181.4 260.4,168.7 255.2,156 z" fill="#000000"/>
    <path d="M311,149.2 C311,141 311,132.9 311,124.7 C344.1,124.7 377.2,124.7 410.2,124.7 C410.2,132.9 410.2,141 410.2,149.2 C398.1,149.2 386,149.2 373.9,149.2 C373.9,181 373.9,212.7 373.9,244.4 C365,244.4 356.1,244.4 347.1,244.4 C347.1,212.6 347.1,180.9 347.1,149.2 C335.2,149.2 323.1,149.2 311,149.2 z" fill="#000000"/>
    <path d="M430,244.5 C430,204.6 430,164.7 430,124.7 C460.2,124.7 490.3,124.7 520.5,124.7 C520.5,132.5 520.5,140.4 520.5,148.2 C499.2,148.2 477.8,148.2 456.5,148.2 C456.5,156.2 456.5,164.2 456.5,172.2 C475.3,172.2 494,172.2 512.7,172.2 C512.7,180.1 512.7,188 512.7,196 C493.9,196 475.2,196 456.5,196 C456.5,204.2 456.5,212.5 456.5,220.8 C478.1,220.8 499.7,220.8 521.3,220.8 C521.3,228.7 521.3,236.6 521.3,244.6 C490.8,244.5 460.4,244.5 430,244.5 z" fill="#000000"/>
    <path d="M603.956,124.742 C614.628,124.809 624.888,126.879 633.9,132.7 C642.1,138 647.3,147.1 648.7,156.7 C650.3,167.4 648.9,179.2 642.4,188.2 C637.9,194.7 631.1,199.1 623.9,201.9 C633.6,216.2 643.4,230.3 653,244.6 C642.6,244.7 632.2,244.6 621.9,244.6 C613.4,231.8 604.8,219.1 596.3,206.3 C589.5,206.3 582.6,206.3 575.8,206.3 C575.8,219.1 575.8,231.8 575.8,244.5 C567,244.5 558.1,244.5 549.3,244.5 L549.3,124.8 C566,124.8 582.8,124.8 599.5,124.8 L603.956,124.742 z M601.5,148.8 L575.7,148.8 C575.7,160.1 575.7,171.4 575.8,182.8 L602.5,182.8 C607.1,182.9 611.8,181.9 615.7,179.3 C624.7,173.3 624.7,157.6 615.3,152 C611.2,149.5 606.2,148.7 601.5,148.8 z" fill="#000000"/>
    <path d="M678,244.5 C678,204.6 678,164.7 678,124.7 C686.8,124.7 695.7,124.7 704.5,124.7 C704.5,156.5 704.5,188.4 704.5,220.2 C723.2,220.2 741.8,220.2 760.5,220.2 C760.5,228.3 760.5,236.4 760.5,244.4 C733,244.5 705.5,244.5 678,244.5 z" fill="#000000"/>
    <path d="M359.5,298.5 C468.9,298.5 578.2,298.5 687.6,298.5 C686.2,343 686.5,387.7 681.5,432.1 C676.7,476.4 666.1,520.6 646,560.6 C637.4,577.7 627.7,594.3 615.7,609.3 C591.3,639.8 558.8,663.1 523.5,679.3 C490.9,664.4 460.7,643.5 437.1,616.4 C422.7,600 411.3,581.2 401.5,561.8 C382.1,523.7 371.4,481.7 366.3,439.5 C360.6,392.7 360.5,345.5 359.5,298.5 z" fill="#262222"/>
    <path d="M366,305 C470.9,305 575.9,305 680.8,305 C679.8,352.1 679.6,399.4 673.1,446.1 C670,468.2 665.4,490.1 658.7,511.3 C613.7,475.7 568.8,439.9 523.8,404.3 C478.7,440.1 433.5,475.9 388.4,511.7 C375,469.5 370.2,425.1 368.3,381 C366.9,355.7 366.7,330.3 366,305 z" fill="#FBD150"/>
    <path d="M649.5,315 C656.4,312.3 665.3,317.4 665.7,325 C666.3,332 661.9,337.8 659.5,344 C657.2,349.8 654.3,355.9 655,362.3 C657.6,359.2 659.5,355.6 661.9,352.3 C661.1,356.2 660.2,360 660,364 C659.8,369.4 660.7,374.7 661,380 C661.6,384.8 656.2,388.1 657,392.9 C658.2,400.7 662.1,408 661.6,416 C661.5,420.4 659.1,424.7 655.5,427.2 C652.4,429.3 648.5,429.2 645,429.8 C645.2,432.4 644.9,435 645.8,437.5 C648.1,441.6 653.6,442.4 656.2,446 C656.6,453.5 651.5,459.9 650.6,467.1 C650.2,470.6 648.9,473.8 647.4,476.9 C646,475.2 645.4,471.3 642.4,472.2 C639.9,473.1 638.5,475.7 636.2,477 C633.8,477.5 631.2,477.2 628.8,477.2 C629.3,474.8 629.8,472.3 630.5,470 C628.2,469.9 626,469.8 623.7,469.5 C623.5,467.5 623.4,465.1 625,463.6 C626.9,462.5 629.2,462.5 631.3,462 C629.3,460.9 627.2,459.9 625.1,459 C626.2,457.3 627,455.4 628.6,454.2 C630.5,453.2 633.6,453.3 634.5,455.6 C635.9,458.6 636.6,462.1 639.2,464.4 C642.9,461.2 645.6,456.3 644.9,451.3 C643.5,447.2 639.4,444.4 635.3,443.8 C629.1,443.3 622.2,446.2 616.7,442.4 C611.8,438.3 612.1,430.6 614.6,425.3 C616.8,420.8 622.2,419.8 626.6,418.6 C621.7,408.8 612.7,402.5 604.5,395.7 C599.6,391.8 600.3,384.8 601.9,379.6 C604,381 606,382.5 607.9,384 C610.6,381 613.2,377.5 617.2,376.4 C621.4,375.2 625.7,376.4 629.7,377.6 C627.8,391 631.9,405.2 640.8,415.4 C642.7,417.5 643.7,420.1 644.7,422.7 C645.1,424.7 647.5,424.8 649.2,424.7 C653.8,424.2 657.5,419.6 657.2,414.9 C657.2,410.3 656.7,405.5 654.6,401.5 C653.8,399.9 651.7,398.4 649.9,399.6 C647.3,400.9 646.6,404 645.3,406.4 C643.5,402.7 640.8,398.2 643.4,394.2 C645.1,390.7 649.3,391.9 652.3,392.4 C650.9,382.8 647.9,373.1 649.7,363.4 C651.6,354.6 654.2,346 655,337 C655.8,332.9 650.6,330.1 647.3,332.1 C644.8,333.4 645.2,336.6 645.1,339 C645.2,344 644.7,349 643.7,354 C642.5,345.4 638.9,337 639.7,328.1 C640.5,322.5 644.2,317.1 649.5,315 z" fill="#CF1C43"/>
    <path d="M454.5,320.2 C456.4,319.6 458,318.3 459.7,317.2 C460,318.7 460.4,320.3 460.5,321.9 C459.4,323.7 457.9,325.2 456.9,327.1 C456.7,331 458.8,335.7 455.3,338.8 C448.7,346.2 437.8,344 429.1,345.5 C428.9,344.8 428.5,343.4 428.2,342.7 C431.2,342.3 434.5,342.5 437,340.6 C440.1,337 440.6,330 435.8,327.5 C432,326 428.2,328.3 424.5,329 C425.4,327.1 425.9,324.5 428.2,323.8 C432.6,322.1 437,320.6 441.3,318.9 C445.8,317 450.1,320.4 454.5,320.2 z" fill="#CF1C43"/>
    <path d="M609.7,319.2 C614.2,316.7 618.8,320.1 623.1,321.4 C626.6,323 630.2,321.2 633.5,320 C633.5,321.7 633.6,323.3 633.7,325 C632.3,326.3 630.7,327.5 629.5,329 C627.4,332.3 627.7,337.2 624,339.4 C620.9,341 617.9,342.7 614.7,344 C609.4,345.5 603.7,344.7 598.4,343.5 C598.7,342.8 599,342.1 599.3,341.3 C602.1,341 605.5,341.4 607.5,339 C610.5,336.1 610,331 607.7,327.9 C606.8,326.6 605,326.8 603.6,327 C600.7,327.5 597.9,328.2 595.1,328.8 C595.8,326.8 595.9,323.6 598.7,323.2 C602.4,322.2 606.2,321.2 609.7,319.2 z" fill="#CF1C43"/>
    <path d="M380.1,321.5 C382.4,320.5 384.7,318.4 387.4,319.3 C390.5,319.9 390.7,323.5 391.7,325.9 C392.5,326.4 393.3,326.9 394,327.4 C394.2,324.3 395.4,321.5 397.1,319 C399,320.7 402.2,322.1 402,325.1 C401.9,329.7 401.4,334.6 403.6,338.9 C408.4,348.8 419,354.4 429.3,356.8 C427.3,359.6 425.6,362.5 424,365.5 C421.1,365.4 418.2,365.4 415.3,365.4 C415,364.3 414.6,363.3 414.3,362.2 C411.6,360.9 408.8,359.9 406.2,358.3 C403.3,356.3 402.9,352.4 400.6,349.8 C399.1,348.6 397.2,348.1 395.5,347.4 C395.5,345.6 395.8,343.5 394.4,342 C391.8,338.2 387,337.4 382.9,336.5 C382.4,335.6 381.9,334.8 381.4,333.9 C380.7,333.6 379.4,333.1 378.7,332.8 C381.1,331.1 383.7,329.7 386.4,328.3 C383.2,327.2 381.1,324.7 380.1,321.5 z" fill="#CF1C43"/>
    <path d="M437.9,326.2 C439.2,324.6 440.2,322.1 442.5,321.6 C444.6,321.9 446.7,323.1 447.3,325.3 C444.3,326.5 441.1,326.6 437.9,326.2 z" fill="#FBD150"/>
    <path d="M497.9,326.5 C504.5,321.4 513.5,320.5 521.3,323.1 C529.7,325.8 537.9,329.6 546.9,329.5 C543.6,334.7 538.3,338.2 532.5,340 C527.7,341.2 522.9,340 518.1,339.8 C519.7,342.5 521.1,345.4 522,348.4 C516.4,344.4 509.8,340.6 502.6,342.1 C496.4,343.5 493.1,349.7 490.9,355 C489.2,358.9 489.7,363.2 491.3,367 C492.8,361.9 497.4,359.3 500.6,355.5 C501.8,357.1 503.8,358.5 503.6,360.8 C503.5,364.3 500,366.2 498.4,369 C498.6,372.7 500.4,376.5 499,380.2 C496.3,388.2 495.9,397.7 489.5,403.8 C486.3,407.2 481.5,407.7 477.2,407.8 C476,411.4 474.7,415.4 471.3,417.6 C467.5,420.3 462.7,419.1 458.4,419 C460.3,424.9 465.4,428.6 469.9,432.5 C462.6,436.1 455.1,439.6 449.1,445.2 C445.5,448.5 443.5,453.1 440.5,456.8 C439.3,455.3 438,453.9 436.7,452.5 C434.1,455.3 431.9,458.4 429.1,461 C428,460.6 427,460.2 425.9,459.8 C425.3,460.2 424,461 423.4,461.4 C423.1,459.9 422.6,458.3 422.5,456.8 C423.3,454.7 424.8,453 426,451.1 C424.2,451.4 422.3,451.8 420.5,452.2 C419.7,450.5 418.1,448.6 419.5,446.7 C420.9,443 426,443.9 427.8,440.5 C426.8,440.7 424.8,441 423.8,441.2 C424.3,438.1 425.8,434.3 429.6,434.9 C433.4,436.7 436.8,440.6 441.5,439.2 C446.2,437.9 451.3,435.8 454.2,431.8 C454.1,431.3 453.8,430.3 453.7,429.8 C448.1,427.5 441.2,427.4 437,422.3 C431.8,417.2 434.2,407.6 440.7,404.8 C445,402.4 449.9,403.8 454.3,404.8 C450.4,396.8 439.7,398.1 434.3,391.9 C432.8,390.2 433.8,387.7 435.5,386.6 C440.2,383.2 446.3,384.1 451.7,383.4 C455.2,383.2 458.4,381.9 461.5,380.4 C463.8,387.6 466.8,395.2 473,400 C475.8,402.2 479.7,404.2 483.3,402.4 C488.4,399.8 491.4,394.1 491.9,388.6 C492.3,385.3 490.1,382.2 487.1,381.1 C484.4,379.8 481.5,381 478.8,381.7 C479.5,379.2 479.5,375.7 482.4,374.6 C485,373.7 487.8,373.9 490.4,373.5 C486.2,366.4 482.2,358.2 483.8,349.6 C485.6,340.9 490.6,332.3 497.9,326.5 z" fill="#CF1C43"/>
    <path d="M607.7,326.2 C608.6,324.4 608.9,321.5 611.5,321.5 C613.8,321.8 615.9,322.8 618.1,323.7 C614.8,325 611.3,325.9 607.7,326.2 z" fill="#FBD150"/>
    <path d="M570.4,322.4 C573,323.4 576.6,324.1 577.5,327.2 C578,331.3 577.1,336 580.1,339.3 C585.5,345.9 594.1,348.5 600.3,354 C598,356.6 595.9,359.2 593.9,362 C589.7,358.5 584.8,355.6 579.2,355.3 C579.9,354.4 580.7,353.5 581.4,352.6 C579.1,348.9 576.1,345.6 572.1,343.9 C570.5,345.5 569,347.3 567.1,348.6 C564.8,348.8 562.6,348.5 560.3,348.5 C560.9,345.7 561.7,342.9 562.9,340.3 C564.6,339.9 566.3,339.5 567.9,339.1 C564.2,338.1 561,336 558.4,333.4 C560.2,332 561.7,328.9 564.4,329.8 C565.9,330.1 567.3,330.6 568.8,331.1 C569.3,328.2 570,325.3 570.4,322.4 z" fill="#CF1C43"/>
    <path d="M461.8,327.6 C466.5,334.5 469.6,342.7 469.2,351.1 C468.8,357.7 464.6,363.4 464.4,370.1 C464.2,373.1 465.9,375.7 467.2,378.4 C463.8,377.7 460.6,376.6 457.4,375.4 C457.4,377.2 457.5,379 457.5,380.8 C455.2,379.2 452.9,377.6 450.6,376.1 C447.1,378.5 443.6,381.3 439.4,382.3 C436.3,383.2 433,383 429.8,383.8 C428.3,384.8 427.3,386.4 426.1,387.7 C425.1,379.8 425.5,371.3 429.3,364.1 C434.7,355.3 445.2,352.5 453.3,347.1 C459.7,342.6 461.6,334.7 461.8,327.6 z" fill="#CF1C43"/>
    <path d="M583.8,331.4 C588.1,332.1 592.4,331.6 596.6,330.8 C600,330 603,332 605.7,333.9 C601.4,335.4 597.3,338.3 592.5,337.4 C588.7,337 586.2,334.1 583.8,331.4 z" fill="#CF1C43"/>
    <path d="M633.3,331.6 C635.1,335.5 636.6,339.6 636.5,343.9 C636.3,354.5 631.3,364.5 632.4,375.1 C628.1,372.9 623.3,371.3 618.5,372.3 C614.3,372.7 610.8,375.4 607.7,378.1 C603.7,375.3 599,373.9 594.7,371.9 C593.7,365.8 599.1,361.3 603,357.5 C609.6,350.8 619.2,348.7 626.1,342.5 C629.5,339.7 631.3,335.5 633.3,331.6 z" fill="#CF1C43"/>
    <path d="M411,335.7 C416.3,335.3 421.3,333.5 426.6,333.2 C430.3,332.9 432.9,335.8 435.3,338.2 C429.7,338.7 424.1,340.2 418.5,339.7 C415.4,339.5 413.2,337.4 411,335.7 z" fill="#CF1C43"/>
    <path d="M560.7,355.6 C563,356.4 566.1,356.5 567.4,359 C569.5,363 569.5,367.8 571.6,371.8 C573,374.6 575.5,376.9 578.6,377.9 C584.7,379.9 591,381.2 597.4,381.7 C596.2,387.6 596.5,394.1 600.5,398.9 C594.9,396.2 588.5,395.1 583.8,390.8 C580.5,387.8 576.4,386 572,385 C572.2,383.6 572.3,382.2 572.5,380.8 C569.8,380.9 566.4,379.7 564.4,382 C561.8,384.8 558.7,387 555.3,388.5 C554.6,386 553.3,383.6 553.6,381 C554.7,378.4 557.8,377.4 559.9,375.8 C557.9,373.3 555.1,375.1 552.6,375.6 C550.6,375.1 548.7,374.1 546.8,373.4 C547.5,370.8 547.7,367.3 550.5,366.1 C554.6,364 558.5,367.4 561.9,369.4 C560.5,367 558.7,364.7 558,362 C558.4,359.7 559.8,357.7 560.7,355.6 z" fill="#CF1C43"/>
    <path d="M382.1,358.3 C384.4,358.1 386.8,357.3 389,358.5 C393.5,360.9 393.2,367.4 397.8,369.6 C405.2,373.4 414.1,375.1 422.1,371.8 C421.6,375.7 421.7,379.5 421.9,383.4 C416.2,384.3 410.9,381.9 405.5,380.5 C402.4,380.7 399.8,383 396.9,384.2 C396.4,382.5 396.7,380.3 395.2,379.2 C392.6,378.5 390.8,380.8 388.9,382 C387,382.2 385.1,382.5 383.1,382.8 C382.1,379.4 383.8,376.4 384.5,373.2 C382.5,372.1 380.1,372.1 377.9,371.9 C378.1,370.3 378.2,368.7 378.9,367.2 C380.4,365.7 382.6,365.4 384.5,364.7 C383.6,362.6 382.9,360.5 382.1,358.3 z" fill="#CF1C43"/>
    <path d="M417.9,403.1 C418.8,399.5 421.6,395.7 425.6,395.4 C430.6,394.9 434.7,398.6 438.4,401.3 C434.6,403.6 430.9,406.5 429.7,411 C428.3,414.6 429.3,418.4 430.5,421.9 C423.2,420.4 416,423.3 410,427.3 C411.1,425 411.7,421.9 408.9,420.5 C406.2,418.3 404.4,421.8 402.8,423.6 C401.3,426.1 398,425.9 395.5,426.6 C395,426.1 393.9,425.3 393.3,424.8 C393.2,423.7 393.1,422.5 393,421.4 C393.7,420.1 394.4,418.8 395.1,417.5 C392.8,418.1 390.3,418.7 389,421 C386.7,419.2 384.3,416.6 385.9,413.5 C387.8,409.1 393.2,410.6 396.9,411.2 C394.8,409 392.8,406.7 390.7,404.4 C392.2,400.8 396.2,398.9 399.9,400.6 C404.1,402.1 403.7,407.3 405,410.8 C405.5,413.4 408.4,414.1 410.6,414.7 C413.3,415.5 416.5,415 418.5,412.8 C418.8,409.5 417.6,406.4 417.9,403.1 z" fill="#CF1C43"/>
    <path d="M602.6,412.1 C604.2,408.7 608.8,407.9 611.9,409.7 C614.9,411.1 616.4,414.1 617.8,416.8 C614.8,419.6 611.2,422.2 609.6,426.1 C608.1,429.4 608.6,433.1 608.8,436.6 C602.3,434.6 595.9,436.8 589.9,439.4 C587.5,436.5 583.9,435.7 580.4,436.6 C580.1,437.4 579.6,439 579.3,439.8 C578,438.6 576.6,437.5 575.5,436.1 C575.7,433.9 576.4,431.7 576.8,429.6 C576.2,430.2 575,431.5 574.5,432.1 C572.7,430.6 570.2,429.6 569.7,427.1 C570.3,423 575.5,423.2 577.3,419.9 C576.1,419.9 573.6,420 572.4,420.1 C573.7,417.9 574.4,414.6 577.4,414.2 C579.8,413.8 583.3,414.3 584.1,417.1 C585.7,421.4 586.9,426.7 591.4,429 C594.5,431.2 599.3,429.8 600.6,426.2 C602.3,421.7 600.6,416.5 602.6,412.1 z" fill="#CF1C43"/>
    <path d="M395,530.8 C437.9,496.8 480.8,462.8 523.7,428.7 C566.4,462.6 609.1,496.6 651.9,530.5 C648.7,538.9 645.1,547.2 641.2,555.3 C602,524.2 562.9,493.1 523.7,462.1 C484.4,493.3 445.1,524.5 405.7,555.6 C401.9,547.4 398.2,539.2 395,530.8 z" fill="#FFFFFF"/>
    <path d="M414.9,572.8 C451.1,544 487.5,515.3 523.8,486.4 C559.9,515.1 596.1,543.8 632.2,572.5 C624.7,585.7 616.5,598.5 606.6,609.9 C584.1,636.5 554.9,657 523.6,672 C492.4,657.3 463.5,636.9 440.9,610.6 C430.8,599.1 422.4,586.1 414.9,572.8 z" fill="#FBD150"/>
    <path d="M537.5,513 C540.3,513.2 542.6,511.4 544.9,510.2 C544.3,512.7 543.2,515 541.4,516.9 C538.2,520.1 539.2,526 534.8,528.2 C526.8,532.6 518.4,536.7 509.2,537.5 C509.8,533.3 515.4,533.7 516.6,529.9 C517.2,526.8 516.6,523.2 514.4,520.9 C511.6,520.2 509,522 506.3,522.6 C507.3,521 507.9,519.1 509.4,517.9 C511.5,516.5 514.1,516.2 516.4,515.7 C518.5,513.8 520.4,511.3 523.4,511.1 C528.2,510.5 532.7,512.7 537.5,513 z" fill="#CF1C43"/>
    <path d="M522.3,519.2 C520.3,517.2 522,515.2 524,514.1 C526.2,514.7 528.5,515.3 530.7,515.9 C528.1,517.3 525.4,518.8 522.3,519.2 z" fill="#FBD150"/>
    <path d="M544.2,520.6 C545.7,522.8 547.4,525.1 547.4,527.9 C548.1,539.1 543.5,549.8 544.2,561 C544.2,565 545.7,568.7 547.2,572.3 C545,571.2 543,569.8 540.6,569.4 C539.2,570.8 538.1,572.4 537,573.9 C531.5,570.4 526.1,565.4 525.5,558.5 C521.3,561 516.5,562 511.7,562.8 C512.3,560.7 513,558.6 513.6,556.4 C510,556.9 507,558.9 504.1,560.9 C506.1,551.8 511.2,542.3 520.5,539 C526.7,536.9 533.2,535 538.1,530.4 C541.1,527.9 542.6,524.2 544.2,520.6 z" fill="#CF1C43"/>
    <path d="M494.8,526.2 C499.8,527.1 504.5,524.8 509.4,524.4 C511.5,525.1 513.3,526.6 515.1,527.9 C510.6,529.2 506.2,531.2 501.4,531 C498.4,530.8 496.7,528.1 494.8,526.2 z" fill="#CF1C43"/>
    <path d="M486.8,535 C487.2,533 488.3,531.1 489.1,529.2 C491,530.2 493.2,531.1 494.8,532.6 C497.3,535.6 495,540.6 498.4,543.1 C500.6,544.8 503.4,545.2 506,545.9 C504.6,548.4 503.6,551.2 501.9,553.5 C498.7,555.2 495,555.6 491.7,556.7 C491.2,554.4 491.9,551.3 489.5,549.9 C485.8,549.4 484.1,554.4 480.4,553.8 C478.6,553.8 476.9,553.8 475.2,553.8 C474.7,550.9 473.8,547.2 476.6,545.1 C478.9,544.7 481.2,544.7 483.6,544.5 C479.9,542.9 476.3,541.3 473.3,538.6 C474.9,535.7 477.8,532.1 481.5,534.1 C484.4,536.4 486.4,539.7 489.7,541.5 C488.7,539.3 487.5,537.3 486.8,535 z" fill="#CF1C43"/>
    <path d="M555,549.9 C553,544.9 555.1,537.9 560.6,536.2 C567,534.5 573.9,537.5 578.1,542.5 C584.8,550.3 586.2,561.2 584.3,571 C586.3,569.4 588,567.4 590.5,566.6 C592.5,566.9 594.5,567.6 596.4,568.2 C593.9,570.8 590.9,573.4 589.9,577.1 C589,579.8 589.7,582.6 590.2,585.3 C587.3,586.3 584.2,587.4 582.3,590.1 C577,596.6 575.6,606.4 567.4,610.2 C560.4,613.7 552.7,610.9 545.9,608.6 C546.8,611.5 547.6,614.6 549.7,616.9 C552.8,620.3 557,622.5 560.9,624.9 C556.2,629.6 552.5,635 548.3,640.1 C545.8,643.3 542.2,645.3 538.9,647.7 C537.4,647.6 535.9,647.4 534.4,647.3 C534.7,646.1 535.1,644.8 535.4,643.6 C533.4,643.4 531.1,642.8 529.5,644.4 C526.9,646.1 526.5,649.5 525.1,652.1 C522.3,652.5 519.3,652.6 516.9,654.2 C516.7,651.9 515.9,649.3 517.2,647.2 C518.9,644.7 521.4,642.8 523.4,640.5 C521,640.5 518.7,641.4 516.4,641.9 C514.2,641.3 512.2,640.2 510,639.3 C512,636.8 513.9,633.7 517.3,633 C520.3,631.9 523.1,633.8 525.7,635.1 C524,633.1 522.4,631 521.2,628.7 C520.9,628.3 520.4,627.4 520.1,627 C523.6,625.7 527.9,624.5 530.9,627.4 C531.8,630.1 531.6,633.4 533.8,635.6 C535.1,636.9 536.9,638.2 538.8,637.8 C542.3,635.7 543.8,631.7 545.4,628.1 C540.1,622.1 532.2,619.9 525.8,615.5 C521.6,612.8 518.5,608.2 518.3,603.1 C518.4,599.5 520.7,596.2 524.1,594.9 C527.7,593.1 531.8,594.8 535.5,595.4 C532.1,591.8 528.1,588.8 523.5,586.8 C519.7,585 515.4,584 512,581.4 C507.5,577.8 505.7,571.4 507.3,566 C512,564.5 517.4,566.7 521.6,563.3 C526.1,569.1 530,575.6 536.6,579.3 C537.9,577.4 539.3,575.4 540.7,573.6 C544.9,581.7 541.6,591.4 545.7,599.5 C548.4,604.8 554.2,608.8 560.3,608.1 C567.6,607.4 573.2,600.8 575,594 C576.1,590.5 573.3,585.9 569.3,586.3 C566.1,587.3 563.9,590.2 561.4,592.2 C561.9,588.1 561.8,583.2 565.1,580.1 C567.8,578.7 571.1,578.7 573.6,576.9 C572.1,575 570,573.7 568,572.3 C571.4,572.8 574.8,573.3 578.2,574 C581.3,566.7 582.6,558 578.7,550.6 C576.7,546.3 572.6,543.5 568.3,541.8 C567.8,542.4 566.6,543.5 566.1,544.1 C569.2,547.2 573.4,549.8 574.6,554.3 C575.3,557.1 573.5,559.5 571,560.5 C570.1,565.8 567.2,570.3 563.4,574.1 C563.5,569.7 563.5,565 561.5,560.9 C560.2,556.7 557.1,553.6 555,549.9 z" fill="#CF1C43"/>
    <path d="M456.3,555 C458.9,552.9 462.1,549.8 465.6,551.8 C470.3,553.3 469.8,559 472.1,562.3 C481.5,567.6 493,567.6 503.4,565.7 C503.1,571.5 504.3,577.6 508.4,582 C502.1,579.9 495.5,578.9 489.6,575.6 C487.4,574.5 485.1,572.8 482.5,573.2 C479,573.6 475.8,575.2 472.5,576.4 C472.2,573.5 471.6,570.2 468.4,569.3 C466.9,571.2 466.4,573.6 465.3,575.7 C463.9,576.9 462.1,577.7 460.5,578.6 C459.3,577.1 457.7,575.8 457.1,573.9 C457.4,572.5 458,571.1 458.4,569.7 C455.7,570.1 453,570.3 450.3,570.5 C450.7,567.4 449.4,562.9 452.7,561 C455.7,559.7 459,560.7 462.2,560.8 C460.3,559 458.3,557 456.3,555 z" fill="#CF1C43"/>
    <path d="M496.4,596 C495.3,590.9 500.4,585.5 505.5,586.2 C511.6,586.8 516.2,591.6 522.4,592.2 C514.4,595.2 513.4,605.8 518,612.1 C508.8,610.8 500.6,615.7 493,620 C492.7,618.5 492.5,616.9 492,615.4 C490.2,614.5 488.2,615.2 486.3,615.2 C484.6,615.3 482.6,615.1 481.4,616.7 C479.1,619.1 476.4,621 473.6,622.7 C472.9,621.5 472.1,620.2 471.4,619 C471.6,616.7 472.7,614.1 471.5,611.9 C469.2,611.3 467,612.4 464.9,613 C464.9,610 464,606.4 466.6,604.2 C469,604 471.4,604.3 473.8,604.2 C474.1,601 470.5,601.5 468.4,600.9 C469.4,598.4 470.2,594.7 473.5,594.7 C475.4,594.6 478.4,594.6 478.9,597 C479.9,599.9 480.9,603.2 484,604.5 C489.5,607 496,606.2 501.7,604.5 C500.2,601.5 497.6,599.2 496.4,596 z" fill="#CF1C43"/>
  </g>
</svg>
